<?xml version="1.0" standalone="no"?>
<!DOCTYPE svg PUBLIC "-//W3C//DTD SVG 1.1//EN" "http://www.w3.org/Graphics/SVG/1.1/DTD/svg11.dtd" >
<svg xmlns="http://www.w3.org/2000/svg" xmlns:xlink="http://www.w3.org/1999/xlink" version="1.1">
<metadata></metadata>
<defs>
<font id="ugo3d_rain" horiz-adv-x="1288" >
<font-face units-per-em="2048" ascent="1638" descent="-410" />
<missing-glyph horiz-adv-x="512" />
<glyph horiz-adv-x="0" />
<glyph horiz-adv-x="682" />
<glyph unicode=" "  horiz-adv-x="512" />
<glyph unicode="&#x09;" horiz-adv-x="512" />
<glyph unicode="&#xa0;" horiz-adv-x="512" />
<glyph unicode="!" horiz-adv-x="530" d="M344 109l35 34q0 -2 -2 -4l-33 -33v3zM381 182l4 4v-2l-2 -2h-2zM305 109l2 -3l-37 -36l-2 -2v2v-2l-6 -7h-4l10 9v2zM268 109l33 32h4l-35 -35h-2v3zM203 80l28 29l2 -3l-28 -28q-2 0 -2 2zM193 109h2l32 32h2l-34 -35zM154 139l-2 2l24 25h2zM160 182h-2h-2l2 2z M305 483zM221 545l-4 -4v4l2 2q0 -2 2 -2zM268 481l-22 -24q-2 0 -2 2l24 24l2 -2h-2zM268 520v-2l-35 -37l-2 2l37 37v2l6 6h5l-9 -8l-2 -2v2z" />
<glyph unicode="#" horiz-adv-x="1267" d="M682 834l27 24l2 -2l-25 -22h-4zM745 858v2l15 12v-4l-12 -12zM608 834l25 24l2 -2l-25 -22h-2zM670 858l2 2l49 47h2l-51 -51v2h-2zM559 856l-8 -8v4l6 6zM596 858v2l49 47h4l-51 -51zM555 891v2l14 14h4zM307 834l27 24v-2l-25 -22h-2zM236 836l22 22l2 -2l-22 -20h-2z M295 858l2 2l49 47h2l-51 -51v2h-2zM221 858v2l49 47h2l-51 -51v2zM211 922l-14 -15v2l12 13h2zM297 557l-2 2h2l8 8h2zM221 557v2l8 8h2zM297 518l-27 -26h-4l29 28l2 2l33 33v-4l-33 -31v-2v2v-2zM184 557l-24 -25v3l22 24zM172 582l-12 -13v4l10 9h2zM221 520v-2l-22 -22 h-4l24 24l2 2l37 37l2 -2l-37 -37l-2 -2v2zM1047 559l8 8h4l-12 -10v2zM1044 520l3 2l36 37l2 -2l-36 -37l-2 -2v2v-2l-27 -26h-4zM971 559l8 8h4l-10 -10h-2v2zM934 557l-33 -35v4l33 33v-2zM907 567l-2 -2v2h2zM971 520v-2l-27 -26h-2l29 28v2l37 37l2 -2l-37 -37l-2 -2v2 zM821 109l17 16v-4l-17 -15v3zM745 72l37 37l2 -3l-36 -36l-3 -2v2v-2l-2 -5l-2 3l4 4v2zM772 133h2l-26 -27h-3v3zM711 106l-4 -2v2l2 3zM717 152l-12 -13l2 4l8 9h2zM1122 860l23 23v-4l-23 -23v2h-2zM1083 858l2 -2l-24 -22h-4zM1096 909h4l-53 -53v2v2zM983 834l25 24 l2 -2l-25 -22h-2zM971 858v2l49 47h4l-51 -51zM948 907zM670 559h2l8 8h2l-10 -10zM672 520v-2l-27 -26h-4l29 28l2 2l37 37l2 -2l-37 -37l-2 -2v2zM596 559l8 8h4l-10 -10h-2v2zM596 520v-2l-27 -26h-2l27 28l2 2l37 37l2 -2l-37 -37l-2 -2v2zM520 520l2 2l35 37l2 -2 l-37 -37v-2v2v-2l-14 -14v4zM520 559h2l8 8h2l-10 -10zM373 106h-2v3l26 26h4zM334 106l-12 -14l-3 2l15 15v-3zM313 123v4l21 18h2zM371 70v-2l-9 -9q0 2 -2 2l11 9v2l37 37l2 -3l-37 -36l-2 -2v2z" />
<glyph unicode="%" horiz-adv-x="1574" d="M1360 182h2v-2l-74 -74h-2v3zM1210 109l33 32q1 0 3 1t3 1l-37 -37h-2v3zM1137 106l-2 3h2l18 18h2zM1210 70v-2l-12 -13h-4l16 15v2l37 37l2 -3l-37 -36v-2zM1063 106h-2v3l24 24h2zM1137 70v-2l-17 -15h-2l17 17l2 2l37 37l2 -3l-37 -36l-2 -2v2zM1024 109v-3l-16 -16 h-2zM1028 152q2 0 2 -2l-43 -44l-2 3h2zM1061 70v-2l-2 -2q-2 0 -2 2l2 2l2 2l37 37l2 -3l-37 -36l-2 -2v2zM979 178l2 -2l-37 -37l-2 2zM911 182v-2l-2 2h2v0zM961 193l-11 -11h-2l10 11h3zM874 297v-2l-6 -6v2zM911 219l-14 -14v2l12 12l2 2l9 8l2 -2l-9 -8h-2zM1255 453 l13 14q0 -2 2 -4l-13 -10h-2zM1247 483l15 13v-2l-13 -13zM1210 520v2l23 21v-2l-21 -21v-2l-2 2v-2l-24 -26q-2 0 -4 2zM1149 571h2l-14 -14l-2 2h2zM1135 520l2 2l37 37l2 -2l-37 -37l-2 -2v2v-2l-29 -26q-2 -3 -4 -3zM1063 481h-2l-33 -32v2l33 32zM1061 518l-25 -24 q2 2 2 6l21 20l2 2l37 37l2 -2l-37 -37l-2 -2v2v-2zM504 1202q0 -2 2 -2l-17 -14h-2zM444 1214h-2l19 19h2l-2 -2zM424 1233h-2l37 37l2 2l4 2l-2 -4h-2v0zM379 1223h-4l10 10h2l-2 -2zM385 1270l-35 -37h-2l37 37v2l27 24h2l-27 -26v0h-2v0zM311 1231l-45 -43q0 2 2 2 l41 43h2v-2zM311 1270l-28 -31q0 4 4 8l22 23l2 2l13 12q2 0 6 4l-17 -18h-2zM1061 1159l33 33l-4 -8l-27 -27h-2v2zM1098 1233l37 37v-4l-35 -33h-2zM987 1010l14 14l-4 -6l-10 -10h-2zM1024 1083l23 25l-3 -6l-20 -21v2zM948 934l8 6l-4 -6l-2 -2zM725 557l-16 -16l4 6 l10 12zM762 631l-8 -6l4 6l2 2h2v-2zM649 408l-33 -35l5 8l26 27h2zM686 481l-24 -24l4 8l20 18v-2zM573 258v-2l-34 -37h-2v0l-13 -12l4 6l7 6l2 2zM610 332l-41 -41l4 6l37 37v-2h2h-2zM461 72l35 34l-4 -8l-29 -28l-2 -2v2v-2l-6 -7h-4l8 9zM463 106h-2v3l74 73h2v-2z M422 109l2 -3l-29 -30l-2 2zM414 137q2 0 2 -2l-29 -29h-2v3zM537 856v2h-2l2 2l73 74v-2h2h-2zM545 827q-2 -1 -5 -3t-5 -3h2l36 37v-2zM467 866h4l-8 -10l-2 2v2zM424 782l-2 2l37 35l2 2l37 37l2 -2l-37 -37h-2v0zM311 856v2h-2l2 2l4 2h2zM383 778h-2l4 6v-2h2l-2 -2z M385 819l-35 -37l-2 2l37 35v2l37 35h2l-37 -37v0h-2zM272 858l2 -2l-36 -35h-2zM238 856l-2 2v2l24 23l2 -2zM311 819l-22 -22h-2l22 22l2 2l35 37q2 0 2 -2h2l-37 -37h-2zM199 858v-2l-4 -2zM213 907l-37 -35v2l35 35q2 0 2 -2zM123 1006l-12 -13v4l10 11q0 -2 2 -2z M104 1026v2l5 2v-2zM162 932l-17 -17q-2 0 -2 3l17 16l2 -2v0zM152 963q2 0 2 -2l-23 -21v2z" />
<glyph unicode="&#x26;" horiz-adv-x="1536" d="M1362 119l22 24q-6 -8 -22 -24zM1389 182l14 17v-4zM1313 109l2 -3l-31 -30q-1 0 -3 -1t-3 -1zM1346 180q1 0 3 1t3 1v-2l-76 -74v3zM1237 109l2 -3l-37 -36l-2 -2v2v-2l-18 -19h-2l20 21v2zM1200 109l25 24h4l-27 -27h-2v3zM1126 106l-2 3h2l17 16h2zM1051 106v3l26 26 h2zM1126 70v-2l-16 -15h-2l16 17l2 2l37 37v-3l-37 -36v-2v2zM1053 70h-2v0h-2l2 2l36 37l3 -3zM1012 109l2 -3l-13 -12h-2zM1022 154h2l-45 -45h-2zM973 182l2 -2l-37 -37l-2 2zM940 182h-2l14 15h2zM899 219l2 2l12 12l2 -2l-12 -12h-2v0l-37 -37h-2zM901 180l-6 -6 q-2 -1 -6 -4t-6 -4l16 16h2v-2zM752 106l-2 3h2l73 73h2l-2 -2zM788 182zM676 106v3l45 47h6zM602 106h-2v3l23 22h4zM676 70v-2l-2 -2h-4l4 4l2 2l37 37l2 -3l-37 -36l-2 -2v2zM526 106l-2 3h2l15 16h4zM600 70v-2l-16 -17h-4l20 19v2l37 37l2 -3l-37 -36l-2 -2v2zM451 106 v3l20 20h2zM526 70v-2l-18 -17h-4l20 19l2 2l37 37v-3l-37 -36v-2v2zM412 109l2 -3l-31 -30q-2 0 -2 2zM377 106h-2v3l35 32h2zM451 70v-2l-9 -9h-4l11 11l2 2l36 37l2 -3l-36 -36l-2 -2v2zM338 109v-3l-6 -8l-2 2zM307 113q-2 0 -2 2l47 47l2 -2zM301 180l-37 -37l-2 2 l37 37h2v-2zM225 182v0v0zM281 199l-17 -17h-2l19 19v-2zM188 256l-6 -6q-2 0 -2 2l6 6zM186 291l-16 -15v3l14 14q2 0 2 -2zM225 219l-16 -16v2l14 14l2 2l13 12q2 0 2 -2l-13 -12h-2zM1090 408l-23 -23l-2 2l22 21h3zM750 1159h2l12 15v-5l-12 -12zM698 1182l43 43h2 l-43 -43h-2zM713 1233l10 10h2l-10 -10h-2zM676 1233v-2l-43 -43h-4zM637 1233l31 31h2l-31 -31h-2zM600 1231l-59 -60v3l59 59h2zM563 1233q11 11 15 12zM901 932l-74 -76l-2 2v2l74 74zM938 934zM862 858l2 -2l-37 -37h-2v0l-37 -37l-2 2l37 35l2 2zM752 819l2 2l-2 -2v0z M748 817q0 2 4 2v0l-4 -4q-3 0 -3 2h3zM406 889l6 6l2 -2h-2q-1 -1 -3 -2t-3 -2zM338 1008l-4 -7v3zM328 1034v2l2 2v-2zM375 932l-10 -12q0 2 -3 2l13 12v-2h2h-2zM367 965l2 -2l-17 -17v2zM713 442l-2 2l24 25l2 -2zM721 489l-6 -8l-2 2l6 6h2zM631 553l6 6l2 -2l-6 -6 q-2 0 -2 2zM616 571q0 2 -2 2l25 25q2 0 2 -2zM664 508l10 12l2 2l12 13v-3l-10 -12l-2 -2v2v-2zM526 707q0 2 2 2zM586 616h-2l16 17h2l-2 -2zM569 637q0 2 -2 2l25 25l2 -2zM524 670l2 2l35 35v-2l-35 -35v-2v2v-2l-37 -35h-2zM381 528l31 31l2 -2l-33 -33v4zM451 633v-2 l-58 -58q0 1 1 3.5t1 3.5z" />
<glyph unicode="*" horiz-adv-x="917" d="M657 819l2 2v-2h-2zM657 782v-2l-41 -41q-2 0 -4 2l43 43zM586 825h2l-4 -6h-2v0l-25 -24v2l23 22l2 2zM582 782v-2l-9 -8l-2 2l11 10v-2zM657 819l-36 -37l-3 2l35 35h4zM524 840l19 18l2 -2l-19 -18zM510 862l22 23h3l-25 -25v2zM502 930l2 -2l-25 -23zM471 932l-2 2 l18 18v-2zM432 932l-57 -58l8 11l47 49l2 -2v0zM336 762q-3 -5 -17 -14l19 18zM283 782v-2l-29 -26h-2l29 30zM356 819l-37 -37v2l35 35l2 2l37 37l2 -2l-37 -37h-2v0zM276 815h3l-33 -33l-2 2zM733 1081h-2l-37 -37l-4 -2l41 41zM731 1120v2l17 15l4 2l-19 -19l-2 -2v2v-2 l-37 -37v2zM655 1083h2v-2l-39 -39v2zM618 1083l11 13h6l-14 -15zM319 1081v2v2l3 -2zM209 1124l2 -2l-2 -2l-2 -2v2v-2l-37 -37l-2 2l37 37l2 2zM283 1081l-43 -43l-2 2l43 43h2v-2zM207 1081l-23 -22h-2l25 24v-2zM266 1104l-20 -23l-2 2l20 21h2z" />
<glyph unicode="+" horiz-adv-x="1116" d="M934 410l35 34l-4 -8l-27 -26l-4 -2h-2zM971 483l4 4v-2l-4 -4v2zM897 408l-10 -11h-2l10 11h2zM821 408l-8 -11h-4l10 11h2zM858 408v2l70 69q4 0 4 2l-72 -73h-2zM748 408l-11 -11h-2l10 11h3zM782 408v2l66 63h2l-66 -65h-2zM672 406v2v-2zM707 408l2 2l63 63h4 l-67 -65h-2zM700 473l-28 -29v2l26 27h2zM442 403l-4 -6h-4l8 9v-3zM371 408l-9 -11h-4zM408 408v2l34 34v-4l-32 -32h-2zM297 408l-10 -11h-2l10 11h2zM332 408l2 2l63 63h4l-67 -65h-2zM221 408l-8 -11h-4l10 11h2zM258 408v2l64 63h4l-68 -65v0zM184 408h-2v2l66 63h2z M180 481q2 0 2 -2l-37 -35v2zM158 494l-13 -13v2l11 11h2zM633 109l6 6q0 -2 -2 -4l-2 -5h-2v3zM596 109v-3l-37 -36v-2v2v-2l-10 -9h-2l10 11l2 2zM498 82l-2 2l24 25l2 -3zM557 109h2l29 30h4l-33 -33zM483 109l33 32h2l-35 -35v3zM473 172l-4 -6v4z" />
<glyph unicode="," horiz-adv-x="530" d="M342 -23l31 31v-4l-35 -35q4 4 4 8zM381 53l4 4v-4l-6 -6q0 1 1 3t1 3zM324 -80v2l28 27q-2 -2 -2 -6l-24 -23l-2 -2v2v-2l-37 -37v2zM248 -193l2 3l55 55q-1 -2 -3 -5t-3 -5l-49 -50v2h-2zM176 -195l-2 2v3l14 14h5zM174 -229v-2l-16 -17h-2l16 19h2l37 36l2 -2l-37 -34 l-2 -2v2zM188 84l23 25l2 -3l-23 -22h-2zM174 109l35 36q2 -2 4 -2l-37 -37h-2v3zM166 172l-21 -20q0 2 -2 2l21 18h2zM145 193q0 -3 2 -3l-4 -4v4z" />
<glyph unicode="." horiz-adv-x="530" d="M350 109l2 -3l-37 -36l-2 -2v2v-2q-1 0 -3 -1t-3 -1l4 4l2 2zM387 182h2v-2l-76 -74v3zM238 72l36 37l2 -3l-36 -36l-2 -2v2v-2h-2h-3l5 2v2zM188 96l13 13v-3l-11 -10h-2zM238 109l28 28h2l-28 -31h-2v3zM174 117q-2 0 -2 2l35 35l2 -2zM164 180l-8 -6v2l6 6h2v-2z" />
<glyph unicode="0" d="M1010 258l2 -2l-37 -37h-2v0l-37 -37h-2l37 37l2 2zM1047 332l-5 -6q0 1 1 2t2 2.5t2 3.5v-2h2h-2zM971 182h2q-5 -5 -15.5 -14t-15.5 -14zM858 109l2 -3l-14 -14q-2 -2 -6 -2zM823 109l74 73h2l-2 -2l-74 -74l-2 3h2zM748 106v3l32 32q1 0 2 1t2 1zM674 106h-2v3l18 18 h4zM748 70v-2l-11 -11h-4l12 13l3 2l36 37l2 -3l-36 -36l-2 -2v2zM598 106l-2 3h2l16 16h2zM672 70v-2l-19 -19h-4l23 21v2l37 37l2 -3l-37 -36l-2 -2v2zM522 106v3l25 24h2zM598 70v-2l-16 -15h-2l16 17l2 2l37 37v-3l-37 -36v-2v2zM483 109l2 -3l-22 -22h-2zM487 147h2 l-40 -41h-3v3zM522 70v-2l-4 -2h-2l4 4l2 2l37 37l2 -3l-37 -36l-2 -2v2zM432 170l2 -2l-45 -45h-2zM373 182v-2l-27 -26l-2 2l27 26h2zM362 209l-26 -27h-2l26 29zM256 256l2 2l2 -2l-2 -2q-2 0 -2 2zM297 258l4 4v-2l-4 -4v2zM242 276v3l22 22q2 0 2 -2zM289 211v2l6 6 l2 2l22 23q3 0 3 -2l-23 -23h-2v0zM186 408l-4 -5v3l2 2h2zM172 432v2l8 8v-2zM221 332l-6 -8v2l6 8v-2h2h-2zM219 369v-2l-16 -17v2zM858 1042v2l14 15l2 -2zM860 1081l-2 2l4 2v-2zM895 969v2h2v-2l-2 -2v2zM760 1130h-2l26 29l2 -2zM805 1102l-2 2l18 16l2 2l13 13v-2 l-13 -13v-2v2v-2zM700 1149l9 10l2 -2l-9 -8h-2zM748 1159l30 33l2 -2l-32 -33v2zM629 1153l6 6v-2l-2 -2q-2 0 -4 -2zM672 1159l57 58h2l-57 -60h-2v2zM598 1159l70 70h2l-72 -72l-2 2h2zM532 1130l27 29l2 -2l-24 -22zM522 1159l66 66h2l-68 -68v2zM408 1004l-11 -11v4 l13 11q-2 -2 -2 -4zM446 1081l-34 -37v7l34 32l3 -2h-3zM446 1120v-2l-6 -6q4 4 4 8h2v2l37 37l2 -2l-36 -37l-3 -2v2z" />
<glyph unicode="1" horiz-adv-x="917" d="M713 109h2h-2v0zM676 109l2 -3l-37 -36l-2 -2v2v-2l-10 -9h-2l10 11l2 2zM569 74h-2l33 35l2 -3zM637 109h2l35 36q1 0 3 1t3 1l-41 -41zM563 109l29 28h4l-31 -31h-2v3zM518 135q0 2 -2 2l25 25l2 -2zM451 1159l2 -2l-37 -37l-2 -2v2v-2l-37 -37l-2 2l37 37l2 2z M414 1081l-2 -2l-4 -2l6 6v-2zM487 1118l-20 -22h-6l26 24v-2zM350 1135l6 2l-16 -17l-2 -2v2v-2l-37 -37v2l37 37v2zM340 1081h-2l-37 -37l-4 -2l41 41zM264 1081l-59 -59h-4l61 61h2v-2zM188 1081l-36 -37h-2l38 39v-2zM246 1102l-19 -21l-2 2l17 17zM127 1133l-10 -11v2 l8 11zM174 1104l-22 -23l-2 2l20 21h4z" />
<glyph unicode="2" horiz-adv-x="1228" d="M1122 182v-2l-75 -74v3l73 73h2zM1051 76l32 33l2 -3l-30 -28q-2 -2 -4 -2zM975 74l33 35l2 -3l-33 -32h-2zM1012 150h4l-43 -44h-2v3zM934 106l-31 -32h-4l35 35v-3zM897 106l-2 3h2l41 41h2zM860 106l-33 -32h-4l35 35zM821 106v3l41 41h4zM784 106l-32 -32h-2l32 35z M748 106h-3v3l41 41h5zM711 106l-33 -32h-4l35 35zM672 106l-2 3h2l41 41h2zM635 106l-33 -32h-4l35 35zM598 106h-2v3l41 41h4zM559 106l-33 -32h-2l33 35zM522 106l-2 3h2l39 41h4zM485 106l-32 -32h-4l34 35zM446 106v3l41 41h2zM410 106l-33 -32h-2l33 35zM373 106h-2v3 l41 41h4zM334 106l-33 -32h-2l35 35v-3zM297 106l-2 3h2l41 41h2zM260 106l-33 -32h-4l35 35zM221 106v3l41 41h2zM166 90l16 19l2 -3l-16 -16h-2zM190 154q3 0 3 -2l-46 -46l-2 3zM141 178l2 -2l-18 -18q-2 2 -2 4zM123 197h2h-2zM858 1083l12 13l2 -2l-12 -13zM819 1120 l2 2l31 31l2 -2l-31 -31l-2 -2v2v-2l-4 -4h-2zM762 1137l20 22l2 -2l-20 -20h-2zM821 1159l13 12h2l-15 -14v2zM700 1151l9 8l2 -2l-9 -8q-2 0 -2 2zM745 1159l43 41h3l-43 -43h-3v2zM629 1155l4 4l2 -2l-2 -2h-4zM670 1159h2l59 60h2l-61 -62zM596 1159l70 70h4l-72 -72h-2 v2zM549 1151l8 8l2 -2l-6 -6h-4zM457 1133l26 26l2 -2l-24 -22q0 -2 -4 -2zM520 1159h2l70 70h2l-72 -72zM408 1159l2 -2l-37 -37l-2 -2v2v-2l-37 -37v2l37 37v2zM446 1159l60 60q2 2 4 2l-64 -64v2zM319 1145q4 4 9 4l-31 -29v-2v2v-2l-37 -37l-2 2l37 37l2 2zM371 1159 l26 27q4 0 4 2l-28 -31h-2v2zM295 1083h2v-2l-41 -39q-2 -2 -4 -2zM221 1081l-31 -30q-2 0 -2 2l33 30v-2zM219 1116l-35 -35l-2 2l35 33h2zM145 1120v-2l-4 -6q-2 2 -2 4l6 4v2l19 17h2l-19 -19l-2 -2v2zM1083 858l2 -2l-36 -37h-2v0l-37 -37l-2 2l36 35l3 2zM1108 918 l-14 -15q1 1 2 3t2 3l10 13v-4zM1047 782v-2l-74 -73l-2 2v0l76 75v-2zM897 709l39 41q4 0 8 4l-47 -47v2h-2h2zM850 700q1 1 3 2.5t3 2.5l-33 -35l-2 -2v2v-2l-37 -35h-2l37 37l2 2zM821 633v-2l-35 -35q-2 -2 -6 -2l41 39v0zM897 670v-2l-35 -33q-2 -2 -4 -2l37 37l2 2 l37 37v-2l-35 -37l-2 -2v2zM672 557l-2 2h2l73 74h3l-3 -2zM711 633h-2h2zM598 557h-2v2l35 35q1 1 3 2t3 2zM543 543q2 1 5 3t5 3l-31 -29v-2v2v-2l-37 -37l-2 2l37 37l2 2zM596 518l-35 -35q-2 0 -2 -2l-2 2l37 37l2 2l37 37l2 -2l-37 -37l-2 -2v2v-2zM446 408v2l74 73h2 v-2z" />
<glyph unicode="3" horiz-adv-x="1306" d="M1161 367l-16 -19q0 4 4 8l12 15h2q0 -1 -1 -2t-1 -2zM1087 219l3 2l22 23q-5 -5 -8 -11l-14 -14v0v0l-37 -37h-2zM1087 258h3l59 61q0 -4 -2 -4l-57 -59v2h-3zM940 106h-2v3l76 73v0v-2zM975 182l29 29q1 1 4 3t4 3l-35 -35h-2zM901 109v-3l-24 -24q-1 0 -2.5 -1 t-2.5 -1zM864 106l-2 3h2l66 65q1 0 2 1t2 1zM788 106v3l33 32h4zM715 106h-2v3l20 18l2 2zM788 70v-2l-10 -11h-4l12 13l2 2l37 37l2 -3l-36 -36l-3 -2v2zM639 106l-2 3h2l16 16h2zM713 70v-2l-19 -19h-2l21 21v2l37 37l2 -3l-37 -36l-2 -2v2zM565 106h-2v3l19 20 q2 -2 4 -2zM639 70v-2l-18 -19q-1 0 -2.5 1t-2.5 1l21 19l2 2l37 37v-3l-35 -36l-2 -2v2zM489 106l-2 3h2l27 26h2zM563 70v-2l-12 -13h-2l12 15l2 2l37 37l2 -3l-37 -36l-2 -2v2zM451 109l2 -3l-29 -26h-2zM414 106l-2 3h2l39 38h2zM489 70v-2l-4 -2h-2l4 4l2 2l35 37l2 -3 l-37 -36v-2v2zM375 109l2 -3l-10 -8h-2zM393 164q2 0 2 -2l-55 -53h-2zM340 182l-2 -2l-49 -49q-2 0 -2 2l51 49h2zM313 193l-12 -11l10 13q0 -2 2 -2zM188 256v2v0l5 4h2zM264 180l-22 -22l-2 2l22 22h2v-2zM262 217l-35 -35h-2l35 37zM152 256v2v-2zM152 295q0 1 1 2t1 2 v-2zM188 219l-10 -12l-2 2l10 10l2 2l27 27v-2l-25 -27h-2zM891 588l24 22v-2l-22 -22zM864 633v-2l-16 -15h-2l16 17h2zM901 633l2 2zM862 670l2 2l2 4l2 -2l-4 -4v-2v2v-2l-37 -35h-2zM788 709l3 2h2l-5 -4v2v0zM786 670l2 2l31 30q0 -2 2 -2l-30 -30l-3 -2v2v-2l-26 -25 h-2zM750 709l2 -2l-37 -37l-2 -2v2v-2l-17 -17h-4l21 19v2zM713 709l14 14h2l-14 -16l-2 2v0zM676 709v-2l-35 -37l-2 -2v2v-2l-16 -17h-5l19 19l2 2zM639 709l18 18h2l-20 -20v2h-2h2zM600 709l2 -2l-37 -37l-2 -2v2v-2l-16 -17h-4l18 19l2 2zM563 709l19 18h4l-21 -20z M487 670l2 2l35 37l2 -2l-37 -37v-2v2v-2l-10 -9h-2zM440 698l11 11l2 -2l-11 -11zM487 709h2l17 18h4l-21 -20v2h-2zM434 725q0 2 -2 4l21 19q0 -1 2 -3zM797 1128h-2l30 31v-2zM834 1092l4 4v-4l-2 -2zM745 1153l5 6l2 -2l-4 -4h-3zM788 1159l23 23q0 -2 2 -2l-25 -23v2z M717 1159l-2 2l55 56l2 -3zM647 1165h-2l68 68h2l-2 -2zM684 1239l-8 -6l6 8q2 0 2 -2zM637 1233h2v-2l-74 -74h-2v2zM600 1233l4 4q1 0 2 1t2 1l-6 -6h-2zM524 1159l2 -2l-22 -22q-1 0 -2 -1t-2 -1zM451 1159l2 -2l-37 -37l-2 -2v2v-2l-37 -37l-2 2l37 37l2 2zM487 1159h2 l68 68q2 2 4 2l-72 -72zM338 1122l31 29h2l-31 -31l-2 -2v2v-2l-27 -26q0 2 -2 2l27 26zM412 1159h2l8 10q4 0 6 2l-14 -14zM301 1157l-27 -27v3l27 26v-2zM266 1159v4l19 19l2 -2zM338 1081v-2l-2 2l2 2l2 -2h-2zM1014 860l28 29q0 -1 -1 -3t-1 -3l-26 -27v2v2zM1051 934 l12 12v-4l-10 -10z" />
<glyph unicode="4" horiz-adv-x="1482" d="M1044 182h3v-2l-76 -74v3zM961 61l8 9l2 2l37 37l2 -3l-37 -36l-2 -2v2v-2l-6 -5q-2 -2 -4 -2zM895 70v2l37 37l2 -3l-37 -36l-2 -2v2v-2h-2zM850 102l8 7v-3l-6 -6zM895 109l27 26h4l-29 -29h-2v3zM838 123v2l28 29h2zM1348 481h-2l-74 -73h-2v2l76 73zM1280 381l27 27 h2l-27 -27h-2zM1202 379l31 29h2l-29 -29h-4zM1241 455h2l-47 -47h-2l2 2zM1159 408l-29 -29h-2l29 29h2zM1083 408l-12 -13v2zM1120 408v2l45 45h4l-47 -47h-2zM1071 432v4l21 19h2zM752 379l30 29h2l-28 -29h-4zM791 455h4l-50 -47v0v2zM709 408l-29 -29h-2l29 29h2z M672 408h-2v2l45 45h4zM633 408l-27 -29h-4zM596 408h-2l2 2l45 45h2zM559 408l-29 -29h-2l29 29h2zM522 408h-2v2l45 45h4zM483 408l-28 -29h-2l28 29h2zM446 408h-2v2l48 45h2zM410 408l-29 -29h-4l31 29h2zM334 408l-29 -29h-2l29 29h2zM369 408l2 2l45 45h2l-47 -47h-2z M258 408l-27 -29h-2h-2zM295 408v2l45 45h4l-47 -47h-2zM184 408l-12 -13v2l10 11h2zM219 408l2 2l45 45h2l-47 -47h-2zM199 459l-45 -45l-2 2l43 43h4zM145 481l-12 -12v4l12 10v-2zM709 858l-11 -12l-26 -27h-2v0l-37 -37v2l37 35v2l37 37h2zM745 934v-2v0l-73 -76l-2 2v2 zM596 782v-2l-74 -73l-2 2v0l74 75zM557 709l2 -2l-10 -9h-2z" />
<glyph unicode="5" d="M1034 221l37 37q-1 -1 -3 -4t-3 -4l-29 -31h-2v0l-37 -37l37 37v2zM1110 334v-2v0l-74 -76l-2 2v0zM1110 369l-6 -7q0 3 4 7v2h2l16 18v-4l-14 -14l-2 -2v2v-2zM885 106v3l73 73h3v-2zM922 182l26 29l8 4l-32 -33h-2zM846 109l2 -3l-29 -28q-2 0 -4 -2zM811 106h-2v3 l63 63q1 0 3.5 1t3.5 1zM735 106l-2 3h2l29 30h4zM659 106v3l19 18h2zM735 70v-2l-14 -13h-2l14 15l2 2l37 37v-3l-35 -36l-2 -2v2zM586 106h-2v3l16 16h4zM659 70v-2l-18 -19h-4l20 21l2 2l37 37l2 -3l-36 -36l-3 -2v2zM510 106l-2 3h2l20 20h2zM584 70v-2l-17 -17h-2 l19 19v2l37 37l2 -3l-37 -36l-2 -2v2zM436 106h-2v3l31 30q2 0 2 -2zM510 70v-2l-10 -11q-2 0 -4 2l12 11l2 2l37 37l2 -3l-37 -36l-2 -2v2zM436 70h-2v0h-2l2 2l37 37l2 -3zM397 109v-3l-20 -22q-1 0 -2 1t-2 1zM360 106l-2 3h2l43 43h3zM322 109l2 -3l-2 -2h-5zM295 117 h-2l51 53l2 -2zM285 180l-39 -39q-2 0 -2 2l41 39v0v-2zM268 201l-20 -19h-2l20 21zM172 256l-25 -25v2l25 25v-2zM156 276l-13 -12v4l11 11zM209 180l-8 -8h-2l10 10h2zM209 219l-31 -31l31 31v2l8 8h2l-8 -10h-2zM1071 1233l4 6q2 -2 2 -4l-4 -2h-2zM967 1130l30 29v-2 l-26 -27h-4zM1034 1159l39 39q0 -1 -1 -3t-1 -3l-35 -35h-2v2zM893 1130l29 29l2 -2l-29 -27h-2zM958 1159h3l47 49h4l-51 -51zM817 1130l29 29l2 -2l-27 -27h-4zM885 1159l45 45h4l-49 -47v2zM741 1130l31 29v-2l-27 -27h-4zM809 1159l47 45h2l-47 -47h-2v2zM668 1130 l28 29l2 -2l-28 -27h-2zM733 1159h2l45 45h4l-49 -47zM592 1130l29 29l2 -2l-27 -27h-4zM659 1159l46 45h4l-50 -47v2zM518 1130l29 29l2 -2l-29 -27h-2zM584 1159l47 45h2l-47 -47h-2v2zM508 1159h2l45 45h4l-49 -47zM862 608q0 2 -2 2l23 23v-4zM848 633h-2l24 24 q2 0 2 -2zM809 670v2l29 28q0 -2 2 -2l-29 -28l-2 -2v2v-2l-12 -13h-2zM739 676l33 33v-2l-31 -31h-2zM809 709l8 8q0 -2 2 -2l-8 -8zM674 686l22 23l2 -2l-20 -21h-4zM733 709h2l33 32h2l-35 -34v2h-2zM598 686l23 23l2 -2l-21 -21h-4zM659 709l50 49h2l-52 -51v2zM512 674 l35 35l2 -2l-33 -31q-2 -2 -4 -2zM584 709l55 53h2l-55 -55zM508 709h2l47 49h4l-51 -51v2h-2zM432 670l2 2l37 37l2 -2l-37 -37l-2 -2v2v-2l-26 -25q0 -2 -5 -2zM360 672l37 37v-2l-37 -37v-2v2v-2l-36 -35h-2l36 37zM434 709l27 26q2 0 4 2l-29 -30zM360 631l-16 -15 q-2 -2 -4 -2l18 19h2v-2zM248 707l-27 -27q0 2 -2 2l27 27zM215 713v2l10 10q2 0 2 -2zM285 631l-11 -10h-2l13 12v0v-2zM285 670v-2l-33 -33l-2 2l33 33l2 2l14 14h4l-16 -16l-2 -2v2z" />
<glyph unicode="6" d="M1075 1157l-6 -6q-2 -2 -6 -2l12 10v-2zM1112 1233h2l-2 -2l-74 -74l-2 2h2zM983 1143l16 16l2 -2l-14 -14h-4zM915 1149l9 10l2 -2l-8 -8h-3zM963 1159l55 55h2h2l-59 -57v2zM844 1153l6 6l2 -2l-6 -4h-2zM887 1159l63 64h4l-65 -66h-2v2zM764 1149l10 10l2 -2l-8 -8h-4 zM811 1159h2l68 68h2l-70 -70zM670 1130l28 29l2 -2l-24 -27h-6zM737 1159l68 68h4l-70 -70h-2v2zM625 1159l2 -2l-37 -37l-2 -2v2v-2l-37 -37l-2 2l37 37l2 2zM662 1159h2l57 58q2 2 4 2l-61 -62zM588 1159l18 21q1 0 3 1t3 1l-24 -25v2zM512 1081l-51 -53q0 2 1 4.5t1 3.5 l49 47l2 -2h-2zM438 971v-2l-4 -4q0 4 2 6l2 2l37 35l-37 -37v-2v2zM1133 389l-17 -16q1 1 2 3t2 3l15 14q0 -2 -2 -4zM1075 258v-2l-37 -37v0v0l-37 -37h-2l37 37l2 2zM1112 334v-2h2h-2l-74 -76v2h-2h2zM889 106h-2v3l76 73v0v-2zM924 182l10 11l8 4l-16 -15h-2zM850 109 l2 -3l-37 -34q-2 0 -4 -2l2 2zM813 106l-2 3h2l53 53q1 0 2 1t2 1zM739 106h-2v3l27 26h4zM664 106l-2 3h2l16 16h2zM737 70v-2l-14 -15h-4l16 17l2 2l37 37l2 -3l-37 -36l-2 -2v2zM588 106v3l16 18h4zM664 70v-2l-21 -19h-2l21 21l2 2l34 37l2 -3l-36 -36v-2v2zM514 106h-2 v3l25 24h4zM588 70v-2l-15 -15h-4l17 17l2 2l37 37l2 -3l-37 -36l-2 -2v2zM475 109v-3l-26 -26q-1 0 -3 2zM438 106l-2 3h2l37 38q2 0 2 -2zM512 70v-2l-4 -5h-2l6 7v2l37 37l2 -3l-37 -36l-2 -2v2zM399 109l2 -3l-6 -4h-2zM420 166h2l-51 -51l-2 2zM362 182v-2l-36 -37 q0 2 -2 2l38 37v0zM346 203l-20 -21h-2l20 21h2zM233 240h-2l19 18v-2zM217 262l25 27l2 -2zM287 180l-2 -2q0 2 -2 2l4 2h2zM287 219l-21 -22q0 2 -2 2l23 20v2l12 12h2l-12 -14h-2zM168 399l-6 -8q0 1 -1 2t-1 2l8 6v-2zM154 422v2l2 4l2 -2zM211 330l-21 -21v2l19 19h2z M195 352l-15 -16q0 2 -2 2zM893 565l6 4v-2l-4 -4q0 2 -2 2zM885 629l-25 -25h-2l27 27v-2zM872 653l-20 -20h-2l20 22zM788 645h-2l25 25l2 2l21 20h2l-21 -22l-2 -2v2v-2zM737 709l21 20h2l-21 -22zM729 659l-2 3l8 8l2 2l37 37l2 -2l-37 -37l-2 -2v2v-2zM662 709h2l30 32 h2l-32 -34v2h-2zM662 668h-3l3 2l2 2l34 37l2 -2l-36 -37v-2v2v-2h-2zM588 709l33 34h4l-37 -36v2zM514 707l-2 2v0l23 22h4zM584 664h-4l6 6l2 2l37 37l2 -2l-37 -37l-2 -2v2v-2zM512 668l-33 -33q-2 0 -4 -2l37 37v2l37 37l2 -2l-37 -37l-2 -2v2v-2zM438 631l-45 -45v4 l43 43h2v-2zM438 670v-2l-26 -27q0 4 4 8l20 21l2 2l29 28q1 1 4 3.5t4 3.5l-37 -37v-2v2z" />
<glyph unicode="7" d="M756 1130l28 29v-2l-24 -27h-4zM821 1159l49 47l-18 -18l-29 -31h-2v2zM682 1130l27 29l2 -2l-27 -27h-2zM745 1159h3l47 47h2l-49 -49zM606 1130l27 29l2 -2l-25 -27h-4zM672 1159l47 47h4l-51 -49v2zM559 1157l-24 -27h-5l29 29v-2zM596 1159l49 47h2l-49 -49h-2v2z M485 1157l-26 -27h-2l26 29zM520 1159h2l47 47h4l-51 -49zM410 1157l-25 -27h-4l27 29zM446 1159l48 47h4l-52 -49v2zM336 1157l-27 -27h-4l29 29zM371 1159l49 47h2l-49 -49h-2v2zM260 1157l-24 -24h-5l27 26zM295 1159h2l47 47h4l-51 -49zM184 1157l-2 -2l-2 2l2 2z M221 1159l47 47h4l-49 -49h-2v2zM166 1176q-2 0 -2 2l39 36h2zM1159 1159l2 -2l-37 -37l-2 -2v2v-2l-37 -37l-2 2l37 37l2 2zM1124 1161l70 70v-2l-72 -72v2q0 2 2 2zM1047 1008v2l28 28q-4 -8 -8 -10l-18 -20h-2zM866 637l-4 -2q2 2 2 4l4 4q-2 -2 -2 -6zM774 98 q-8 -8 -14 -12zM748 109l51 53v-4l-51 -52l-3 3h3zM672 72l37 37l2 -3l-37 -36l-2 -2v2v-2l-6 -7h-2l6 9zM672 109l26 26h2l-28 -29v3zM614 90l19 19l2 -3l-19 -18q-2 0 -2 2zM635 145h2l-39 -36v2zM582 166v2l10 10v-2z" />
<glyph unicode="8" d="M774 1130l-2 3l27 26v-2zM813 1096q0 2 -2 2l10 10l2 -2zM719 1155l4 4l2 -2l-2 -2h-4zM760 1159h2l26 29l3 -2l-29 -29zM692 1161q-1 0 -2 1t-2 1l57 56h3zM621 1165h-5l70 68v0v-2zM657 1241l-8 -8h-2l8 8h2zM571 1157l2 2v-2h-2zM610 1233h2l-2 -2l-73 -74l-2 2h2z M573 1233h2h-2zM500 1157l-33 -33v4l31 31zM1137 369q0 1 1 3t1 3l12 10q-2 0 -2 -4l-10 -10zM1098 258l2 -2l-37 -37h-2v0l-37 -37h-2l37 37l2 2zM1135 334l2 -2v0l-74 -76l-2 2v0zM1135 369h2h-2zM911 106l-2 3h2l74 73h2l-2 -2zM948 182l23 23q4 4 6 4l-27 -27h-2z M872 109l2 -3l-28 -28h-4zM838 106h-2v3l61 61q1 1 3 2t3 2zM762 106l-2 3h2l29 30h4zM686 106v3l19 18h2zM762 70v-2l-12 -11q-3 0 -5 -2l15 15l2 2l37 37v-3l-37 -36v-2v2zM612 106h-2v3l17 16h4zM686 70v-2l-18 -19h-4l20 21l2 2l37 37l2 -3l-37 -36l-2 -2v2zM537 106 l-2 3h2l20 20h2zM610 70v-2l-16 -17h-4l20 19v2l37 37l2 -3l-37 -36l-2 -2v2zM498 109l2 -3l-35 -34h-2zM461 106v3l31 30h4zM537 70v-2l-11 -9h-2l11 11l2 2l36 37v-3l-36 -36v-2v2zM422 109l2 -3l-16 -16h-2zM432 156h2l-47 -50h-2v3zM377 176q2 0 2 -2l-47 -49l-2 2z M311 182v-2l-26 -24l-2 2l26 24h2zM354 186l-6 -4l4 4h2zM236 256v2v0l2 4l2 -2zM305 213l-31 -31h-2l31 31h2zM190 252l7 6l2 -2l-6 -6zM178 272l-2 2l25 25q0 -2 2 -2zM236 219l-11 -10h-2l10 10l3 2l22 23h2l-22 -25h-2v0zM160 332l-6 -8v2l6 8v-2h2h-2zM154 365 q0 -3 2 -3l-11 -10l-2 2zM909 559zM864 586l29 30q0 -2 2 -2l-29 -28h-2zM838 633l-2 -2l-17 -17h-2l19 19h2zM872 633l7 6v-2l-5 -4h-2zM834 670l2 2l4 2l-2 -4l-2 -2v2v-2l-37 -35zM762 709v2q2 0 2 -2l-2 -2v2h-2h2zM760 670l2 2l29 28h2l-31 -30v-2v2v-2l-27 -27 q-2 2 -4 2zM723 709l2 -2l-37 -37l-2 -2v2v-2l-18 -19h-4l20 21l2 2zM686 709l14 14h2l-16 -16v2v0zM612 707l-2 2v0l17 16l4 2zM610 668l-20 -21h-4l24 23v2l37 37l2 -2l-37 -37l-2 -2v2v-2zM535 709h2l4 6h4l-8 -8v2h-2zM537 668l-37 -35h-2l37 37l2 2l36 37v-2l-36 -37 v-2v2v-2zM459 670l2 2l22 22q2 2 6 2l-26 -26l-2 -2v2v-2l-37 -35h-2zM461 633v-2l-74 -74h-2v2zM985 860l51 49q0 -2 -2 -4l-47 -49l-2 2v2zM1026 936l27 27q0 -3 -2 -5l-27 -26v2q0 2 2 2zM313 862l6 6q3 0 3 -2h-3q-4 -4 -6 -4zM285 905l-23 -22v2l21 22zM236 971v-2 l-3 -2v2v2l3 2l4 2v-2l-2 -2l-2 -2v2z" />
<glyph unicode="9" d="M1036 410l13 12q0 -1 -1 -3t-1 -3l-11 -8v0v2zM1075 481l-2 2l2 4v-6zM997 334l4 4q0 -1 -1 -3t-1 -3zM924 258v-2l-37 -37v0v0l-37 -37h-2l37 37l2 2zM961 334v-2h2h-2l-74 -76v2h-2h2zM811 180l-66 -65q-1 0 -3 -1t-3 -1l72 69v0v-2zM811 219l-37 -37h-2l37 37l2 2l2 2 q1 1 3 2t3 2l-6 -8h-2v0zM698 109v-3l-16 -16q-1 0 -2 -1t-2 -1zM662 109l73 73h2l-2 -2l-73 -74l-3 3h3zM586 106v3l39 38q1 0 4 3zM512 106h-2v3l22 22h5zM586 70v-2l-4 -5h-4l6 7l2 2l37 37l2 -3l-37 -36l-2 -2v2zM436 106l-2 3h2l17 16h2zM510 70v-2l-16 -17h-2l18 19v2 l37 37l2 -3l-37 -36l-2 -2v2zM362 106h-2v3l17 16h4zM436 70v-2l-20 -19h-2l20 21l2 2l37 37l2 -3l-37 -36l-2 -2v2zM287 106l-2 3h2l20 22h4zM360 70v-2l-16 -17h-2l16 19l2 2l37 37l2 -3l-37 -36l-2 -2v2zM248 109l2 -3l-35 -32h-2zM211 106v3l33 32h2zM287 70v-2l-11 -9 l-2 2l11 9l2 2l35 37l2 -3l-37 -36v-2v2zM174 106l-4 -4v2l2 5zM188 158l-30 -31l-2 2l30 31q0 -2 2 -2zM864 1063l15 14v-4l-13 -12q0 2 -2 2zM848 1083l22 23v-2l-20 -23zM809 1120l2 2l31 31q0 -2 2 -2l-31 -31l-2 -2v2v-2l-4 -4h-2zM752 1139l20 20l2 -2l-20 -20z M811 1159l12 12q0 -2 2 -2l-14 -12v2zM690 1151l8 8v-2l-4 -6h-4zM735 1159l43 41h2l-43 -43h-2v2zM621 1157l2 2l2 -2h-2h-2zM659 1159h3l61 62h2l-63 -64zM586 1159l71 72h2l-73 -74v2zM537 1147l10 12l2 -2l-8 -10h-4zM473 1159l2 -2l-37 -37l-2 -2v2v-2l-37 -37l-2 2 l37 37l2 2zM510 1159l72 70l2 2l-72 -74h-2v2zM434 1159h2l43 43q1 1 3 2t3 2l-49 -49zM782 643h4l-12 -10h-2zM698 559v-2l-10 -12h-4zM735 557v2l76 74v0v-2l-74 -74h-2zM731 629h4l-73 -72l-3 2h3zM623 559l2 -2l-19 -18h-2zM643 616h4l-61 -59v2zM547 559l2 -2l-14 -14 h-3zM567 616h4l-59 -59h-2v2zM473 559l2 -2l-4 -4h-2zM500 623h2l-62 -62h-2zM381 580l53 53h2v-2l-51 -51h-4zM399 633h-2l13 12l2 -2zM334 604h-2l28 29h2l-2 -2zM356 666l-32 -33h-2l32 33h2zM285 670l2 2l18 20l2 -2l-20 -20v-2v2v-2l-21 -19h-2zM250 707l-23 -23l-2 2 l23 23zM211 707v2v0l29 30l2 -2zM143 827v2l13 13v-2zM137 856q0 2 -2 4l6 6l2 -2zM203 774l-25 -24l-2 2l27 24v-2zM186 795l-12 -13l-2 2l12 13z" />
<glyph unicode=":" horiz-adv-x="530" d="M346 709l37 36v-2l-37 -36v2h-2h2zM307 709l2 -2l-37 -37l-2 -2v2v-2l-24 -23h-2l24 25l2 2zM270 709l11 10q2 0 4 2l-15 -14v2zM195 709l20 18h2l-20 -20zM150 735v2l18 21l2 -2zM195 670v-2h-2l2 2v2l36 37l2 -2l-36 -37l-2 -2v2zM346 109l31 32q0 -4 -2 -6l-29 -29 l-2 3h2zM383 182v2v-2v0zM307 109l2 -3l-37 -36l-2 -2v2v-2l-8 -7h-2l8 9l2 2zM270 109l33 32q1 0 2 1t2 1l-37 -37v3zM203 78l28 31l2 -3l-28 -28h-2zM195 109l32 32h2l-32 -35h-2v3zM180 164l-26 -25v2l24 25zM160 182h-2v2z" />
<glyph unicode=";" horiz-adv-x="530" d="M201 80h-2l26 29l2 -3zM188 109l33 32h2l-33 -35h-2v3zM174 166l-22 -23q-2 0 -2 2l24 23v-2zM156 184l-4 -2l2 4zM340 -41l33 33q0 -1 -1 -2t-1 -2l-31 -31l-2 2h2zM377 33l10 10q-2 -2 -2 -4l-8 -8v2zM338 -80l2 2l6 6q0 -1 -1 -3t-1 -3l-4 -2v-2v2v-2l-37 -37l-2 2z M264 -193v3l8 8q-3 -6 -8 -11zM190 -195l-2 2v3l19 18q4 0 6 2zM152 -195l-5 -4q0 1 5 6v-2zM188 -229v-2l-18 -21q-2 0 -2 2l20 21l37 36l2 -2l-37 -34l-2 -2v2zM340 709l45 45v-2l-45 -45v2h-2h2zM338 670l2 2l29 28q-1 -2 -4.5 -5t-4.5 -5l-20 -20v-2v2v-2h-2 q-2 -2 -10 -6zM301 709l2 -2l-37 -37l-2 -2v2v-2l-22 -23h-2l22 25l2 2zM264 709l10 10h2l-12 -12v2zM188 672l37 37l2 -2l-37 -37v0h-2v0v2zM188 709l21 20h2l-21 -22zM147 739v2l17 19l2 -2z" />
<glyph unicode="=" horiz-adv-x="1038" d="M842 709l4 4q0 -2 2 -2l-4 -4l-2 2v0zM842 670v2l8 6q-2 0 -2 -4l-4 -4l-2 -2v2v-2l-37 -35zM768 672l16 16q2 0 4 2l-18 -20l-2 -2v2v-2l-37 -35h-2l37 37zM709 688h4l-19 -18l-2 -2v2v-2l-37 -35h-2l37 37l2 2zM766 633h2v-2l-18 -19h-5zM692 633v-2l-18 -19h-4l22 21 v0zM618 633l-2 -2l-18 -19h-2l20 21h2zM616 670v2l17 16h4l-19 -18l-2 -2v2v-2l-34 -35h-2zM541 670l2 2l16 16h2l-16 -18l-2 -2v2v-2l-37 -35h-2zM541 633h2v-2l-19 -19h-4zM465 670l2 2l16 16h4l-18 -18l-2 -2v2v-2l-37 -35h-2zM467 633h2l-2 -2l-18 -19h-3zM391 670l2 2 l15 16h4l-19 -18v-2v2v-2l-37 -35h-2zM391 633h2v-2l-20 -19h-2zM315 670l2 2l17 16h2l-17 -18l-2 -2v2v-2l-36 -35h-2zM317 631l-18 -19h-4l22 21v0v-2zM188 688v2v2l17 17v-2zM242 631l-11 -10h-2l13 12h2zM242 670v-2l-33 -33v2l33 33v2l16 16h4l-18 -18l-2 -2v2z M844 332h-2l-39 -41q-1 0 -3 -1t-3 -1l45 45v-2h2zM842 371l6 6v-2l-4 -4l-2 -2v2v-2l-37 -37v2zM768 332l-47 -47h-2l47 49zM692 332l-45 -47h-4l49 49v-2zM760 360l-29 -28l-2 2l27 26h4zM618 332h-2l-45 -47h-4l49 49v-2h2zM684 360l-29 -28l-2 2l29 26h2zM543 332 l-47 -47h-2l47 49zM610 360l-28 -28l-2 2l26 26h4zM469 332h-2l-45 -47h-4l49 49v-2h2zM535 360l-29 -28l-2 2l26 26h5zM393 332l-47 -47h-4l49 49zM459 360l-29 -28l-2 2l29 26h2zM317 332l-47 -47h-2l49 49v-2zM385 360l-29 -28l-2 2l27 26h4zM244 332h-2l-27 -29l-2 2 l29 29v-2h2zM309 360l-28 -28l-2 2l26 26h4zM236 365h2l-33 -33v2z" />
<glyph unicode="?" horiz-adv-x="1095" d="M600 109l57 59v-4l-57 -58l-2 3h2zM524 72l37 37l2 -3l-37 -36l-2 -2v2v-2l-6 -5h-2l6 7zM524 109l29 28h2l-29 -31h-2v3zM465 88l20 21l2 -3l-20 -20q-2 0 -2 2zM487 145h2l-38 -39h-2v3zM442 174l-18 -18v2l16 18zM424 197q0 -2 2 -2l-4 -5v5zM682 1126h-2l31 33l2 -2z M723 1096zM623 1145l14 14v-2l-10 -12h-4zM674 1159l26 25l-24 -27h-2v2zM555 1153l6 6l2 -2l-6 -4h-2zM598 1159h2l53 53h2l-55 -55zM477 1149l8 10l2 -2l-6 -6q-1 0 -2 -1t-2 -1zM524 1159l66 66h4l-68 -68h-2v2zM381 1128l31 31l2 -2l-29 -27q0 -2 -4 -2zM449 1159l69 70 h2l-69 -72h-2v2zM299 1122l37 37l2 -2l-37 -37l-2 -2v2v-2l-31 -31h-4l33 33zM373 1159h2l59 60h4l-63 -62zM299 1159l18 19l5 2l-21 -23h-2v2zM188 1157l-24 -22v2l22 22zM223 1159h2l2 4h4l-6 -6zM156 1163v2l18 21l2 -2zM225 1120v-2l-22 -22l-2 2l22 22l2 2l37 37v-2 l-37 -37v-2v2zM899 860l43 41l-2 -4l-39 -41l-2 2v2zM936 934l25 24v-4l-23 -22zM823 784l2 -2v-2l-75 -73v2v0zM711 633l30 31q-3 -3 -8 -9.5t-8 -9.5l-12 -12h-2zM600 481l-57 -57h-4l59 59h2v-2zM561 483l19 19q1 0 3 1t3 1l-23 -23zM477 434h-2l49 49l2 -2h-2zM502 496 l-15 -15l-2 2l15 13h2zM449 481v-2l-3 2l3 2l2 -2h-2zM449 520v-2l-5 -4v2l5 4v2l2 2l2 -2l-2 -2v-2z" />
<glyph unicode="A" horiz-adv-x="1517" d="M1380 244l-2 -4v4l2 2v-2zM1382 98l-16 -16zM1356 109l49 49v-2l-49 -50l-2 3h2zM1356 182v-2l-74 -74h-2v3l74 73h2zM1393 182l8 11l2 -3l-8 -8h-2zM1280 72l37 37l2 -3l-37 -36l-2 -2v2v-2l-6 -7q-2 0 -2 2l6 7zM1243 109v-3l-16 -16h-2zM1233 135h2l-25 -24q0 2 -2 2z M1049 360h-5l11 11l4 4v-2l-2 -2l-2 -2v2v-2zM979 371h2l37 37l-37 -37v-2v2v-2l-8 -9h-2zM942 408h2l-37 -37l-2 -2v2v-2l-6 -9h-4l8 11h2zM979 408l2 2l27 26h4l-31 -28h-2zM866 408h2l-37 -37l-2 -2v2v-2l-6 -9h-4l10 11zM905 408v2l29 26h2l-31 -28v0zM793 408l-35 -37 l-2 -2v2v-2l-8 -9h-3l9 11h2zM829 408v2l29 26h4l-31 -28h-2zM756 410l26 26h4l-30 -28h-2zM717 408h2l-37 -37l-2 -2v2v-2l-6 -9h-4l8 11h2zM680 410l29 26h2l-31 -28v0v2zM641 408h2l-37 -37l-2 -2v2v-2l-6 -9h-2l8 11zM604 408v2l29 26h4l-31 -28h-2zM528 371h2l37 37h2 l-37 -37l-2 -2v2v-2l-36 -37l-2 2zM494 408l-27 -27l2 6l23 21h2zM528 408l2 2l27 26h4l-31 -28h-2zM471 238l-2 -7l-12 -12h-2v0l-37 -37l35 37l2 2zM418 258v-2l-12 -12l2 6zM455 258l47 47l-2 -6l-43 -43zM455 332l-19 -21l2 6l17 17v-2h2h-2zM381 109l59 59l-2 -4 l-57 -58l-2 3h2zM305 106v3l74 73h2v-2zM266 109l2 -3l-18 -18h-2zM231 109v2l25 24h4zM305 70v-2l-6 -7h-4l8 9l2 2l37 37l2 -3l-37 -36l-2 -2v2zM754 971l2 2l22 22v-2l-20 -22l-2 -2v2v-2l-37 -37l-2 2zM754 1008l2 2l10 10l2 -2l-12 -10h-2zM756 932l-74 -74l2 4l70 72 l2 -2v0zM680 782v-2l-59 -59l2 6l57 57v-2zM641 709l2 -2l-29 -29h-2zM680 709l6 6l-4 -6l-2 -2v2zM680 819l-29 -28l2 4l25 24l2 2l37 37l2 -2l-37 -37h-2v0z" />
<glyph unicode="B" horiz-adv-x="1341" d="M844 1083h2v-2h-2v2zM821 1096l-2 2l25 22l2 2l8 8v-2l-8 -8v-2v2v-2zM768 1120l2 2l37 37l2 -2l-37 -37l-2 -2v2v-2l-6 -6l-2 2zM770 1159l23 23h2l-25 -25v2zM694 1120v2l37 37l2 -2l-37 -37l-2 -2v2v-2l-4 -4h-2zM657 1159v-2l-36 -37v-2v2v-2l-7 -4h-2l6 6l3 2z M694 1159l31 31h4l-33 -33h-2v2zM582 1159l2 -2l-37 -37l-2 -2v2v-2l-4 -4h-4l6 6l2 2zM618 1159h3l30 31h2l-32 -33zM545 1159l30 31h3l-33 -33v2zM434 1157l-16 -14v2l14 14zM469 1159l31 31h4l-33 -33h-2v2zM418 1180v4l8 6h2zM469 1120v-2l-4 -4h-2l6 6v2l37 37l2 -2 l-37 -37l-2 -2v2zM1071 860l4 4q-1 -1 -2 -3t-2 -3h-2zM1012 838l20 20l2 -2l-20 -18h-2zM1106 258l2 -2l-37 -37v0v0l-37 -37h-2l37 37l2 2zM1071 182v-2l-16 -14q-2 -2 -6 -4.5t-5 -3.5l25 24h2zM922 106h-2v3l75 73v0v-2zM956 182l5 6q4 0 6 2l-9 -8h-2zM883 106l-21 -20 h-4l25 23v-3zM846 106l-2 3h2l61 61q2 2 4 2zM809 106l-33 -30h-2l33 33zM770 106v3l45 45h4zM698 74l33 35l2 -3l-33 -32h-2zM735 150h4l-43 -44h-2v3zM657 106l-30 -32h-4l34 35v-3zM621 106l-3 3h3l41 41h2zM584 106l-33 -32h-4l35 35zM545 106v3l41 41h4zM508 106 l-33 -32h-2l33 35zM471 106h-2v3l41 41h4zM434 106l-33 -32h-4l35 35zM395 106l-2 3h2l41 41h2zM358 106l-32 -32h-4l34 35zM322 106h-3v3l41 41h5zM283 106l-29 -30q-2 2 -4 2l31 31zM246 106l-2 3h2l39 41h4zM209 106l-6 -4h-2l6 7zM225 160l-39 -39l-2 2l39 39zM170 182 v-2l-6 -4v2l6 4v0zM926 561l-2 2l8 6v-2zM887 598l-2 2l30 29q1 0 3 -2zM883 633l18 20q0 -2 2 -2zM844 670l2 2l14 14h2l-16 -16v-2v2v-2l-37 -35h-2zM803 705h2l-33 -35l-2 -2v2v-2l-37 -35h-2l37 37l2 2zM770 707zM844 633h2v-2l-10 -8h-2zM696 707zM770 631h-2l2 2v0v-2 zM696 631h-4l2 2h2v-2zM621 707zM621 631h-5l2 2h3v-2zM657 633l37 37v2l37 35h2l-37 -37l-2 -2v2v-2zM547 707h-2h2zM545 631h-2l2 2v0v-2zM584 633h-2l36 37l3 2l34 35h2l-36 -37v-2v2v-2zM471 707zM471 631h-4l2 2h2v-2zM508 633h-2l37 37l2 2l35 35h4l-37 -37l-2 -2v2 v-2zM434 707l-16 -15v4l12 11h2h2zM469 670v-2l-35 -35h-2l37 37v2l37 35h2l-37 -37l-2 -2v2z" />
<glyph unicode="C" horiz-adv-x="1452" d="M1227 258l69 72v-2l-69 -72v2h-2h2zM1188 258l2 -2l-37 -37h-2v0l-37 -37h-2l37 37l2 2zM1151 182v-2l-49 -49q-2 0 -6 -4l55 55v0zM1038 106l-8 -10q-4 0 -6 -2l14 15v-3zM1075 182h2l-2 -2l-74 -74l-2 3h2zM963 109l2 -3l-37 -36l-2 -2v2v-2l-4 -5h-4l6 7l2 2zM926 109 l41 41q1 0 2 1t2 1l-45 -46v3zM850 109l22 22h5l-25 -25h-2v3zM776 106l-2 3h2l17 16h2zM850 70v-2l-16 -17h-5l21 19v2l37 37l2 -3l-37 -36l-2 -2v2zM702 106h-2v3l21 20q0 -2 2 -2zM776 70v-2l-18 -19h-4l20 21l2 2l37 37l2 -3l-37 -36l-2 -2v2zM627 106l-2 3h2l28 28h2z M700 70v-2l-12 -11h-2l12 13l2 2l37 37l2 -3l-37 -36l-2 -2v2zM627 70v0h-2l2 2l35 37l2 -3zM588 109l2 -3l-21 -20q-2 0 -2 2zM594 154l2 -2l-45 -46v3zM539 172h2l-52 -51h-2zM477 182l-2 -2l-33 -33q-2 1 -2 3l35 32h2zM514 182h-2h2zM416 238l2 -2l-17 -17v0v0l-24 -24 q0 2 -2 2l24 22l2 2zM401 182v-2l-4 -2v2l2 2h2zM465 207l-27 -25l25 27q0 -2 2 -2zM336 231l26 27l3 -2l-27 -25h-2zM326 256v2v0l26 27h2zM285 291h-2l30 31q2 -1 2 -3zM297 340l-8 -8l-2 2l8 8zM211 408h2v-2q-2 0 -2 2zM217 446l-16 -16l-2 2l16 17q2 -1 2 -3zM238 356 v2l12 13l10 10h2l-10 -10l-2 -2v2v-2zM176 520v-2l-6 -4v2l4 4l2 2q2 0 2 -2h-2v-2v2zM1237 1133v-3l-10 -10v-2v2q7 7 10 13zM1227 1081l-74 -71l-2 -2v2l74 73h2v-2zM1151 1081l-61 -61h-3l64 63v-2zM1212 1108q2 2 7.5 6t7.5 6v-2l-37 -37l-2 2zM1114 1081l-2 2l2 2l2 -2 zM1042 1047l-2 2l35 34l2 -2h-2zM1038 1081v2l23 23h2zM999 1120l2 2l13 15l2 -2l-15 -15v-2v2v-2l-28 -28l-2 2zM999 1083h2v-2l-6 -4h-2zM924 1120l2 2l37 37l2 -2l-37 -37l-2 -2v2v-2l-4 -4h-2zM860 1130l27 29l2 -2l-27 -27h-2zM926 1159l18 19q0 -2 2 -2l-20 -19v2z M791 1137l22 22l2 -2l-20 -20h-4zM850 1159l39 39h4l-41 -41h-2v2zM709 1130l28 29l2 -2l-26 -27h-4zM774 1159h2l51 51h2l-53 -53zM662 1159l2 -2l-37 -37v-2v2v-2l-27 -24q-2 0 -6 -4l31 30l2 2zM700 1159l54 51l2 2l-54 -55h-2v2zM588 1159l2 -2l-37 -37l-2 -2v2v-2 l-37 -37l-2 2l37 37l2 2zM625 1159h2l30 33q5 0 7 2l-37 -37zM551 1083v-2l-74 -73h-2v2z" />
<glyph unicode="D" horiz-adv-x="1452" d="M1214 410l17 16q0 -1 -1 -2t-1 -2l-15 -14h-2zM1249 483l4 4q0 -4 -2 -6zM1139 332l-74 -76l-2 2v0l74 76zM1178 332l-2 2l12 12q0 -2 -6 -8zM1100 258l2 -2l-37 -37h-2v0l-37 -37l35 37l2 2zM1006 238l6 6l-23 -25v0v0l-37 -37h-2l37 37l2 2zM989 182v-2l-49 -49 q-4 0 -6 -2l53 53h2zM874 109l3 -3h-3v3zM840 106h-2v3l75 73v0v-2zM877 182zM801 106l-23 -22h-4l27 25v-3zM764 106l-2 3h2l57 59h4zM727 106l-33 -30h-2l33 33zM688 106v3l45 45h2zM616 74l33 35l2 -3l-33 -32h-2zM657 150l-43 -44h-2v3l41 41h4zM575 106l-30 -32h-4 l34 35v-3zM539 106l-2 3h2l41 41h2zM502 106l-33 -32h-4l35 35zM465 106h-2v3l41 41h4zM426 106l-33 -32h-2l33 35zM389 106h-2v3l41 41h4zM350 109l2 -3l-33 -32h-2h-2zM313 106l-2 3h2l41 41h2zM276 106l-16 -16h-2l16 19zM240 106h-2v3l45 45h2zM233 178v-2l-24 -24 q0 2 -2 2zM213 197q0 -2 2 -2l-12 -13v4zM1020 891l2 2q0 -2 2 -2l-4 -2v2zM987 971l2 2l8 8v-2l-8 -8v-2v2v-2l-8 -8l-2 2zM944 1004l6 4h2l-6 -7q0 3 -2 3zM926 1022l30 31v-2l-28 -31q-2 0 -2 2zM913 1081l-28 -28h-2l30 30v-2zM903 1108l-26 -27l-3 2l27 27q0 -2 2 -2z M838 1120v2l18 17h2l-18 -19l-2 -2v2v-2l-31 -31q0 3 -2 3zM838 1083l2 -2h-2l-2 -4l-2 2zM762 1120l2 2l37 37v-2l-37 -37v-2v2v-2l-14 -14h-5zM725 1159l2 -2l-37 -37l-2 -2v2v-2l-6 -6l-2 2l6 6l2 2zM762 1159h2l12 12h2l-14 -14zM612 1122l37 37l2 -2l-37 -37l-2 -2v2 v-2l-4 -4h-2l6 6v2zM688 1159l27 27h2l-29 -29v2zM575 1159v-2l-34 -37l-2 -2v2v-2l-4 -4h-5l7 6l2 2zM612 1159l31 31h2h2l-33 -33h-2v2zM537 1159h2l30 31h2l-32 -33zM463 1159l31 31h4l-33 -33h-2v2zM463 1120v-2l-4 -4v4l2 2l2 2l37 37l2 -2l-37 -37l-2 -2v2z" />
<glyph unicode="E" horiz-adv-x="1302" d="M1124 182v-2l-75 -74v3l73 73h2zM1055 78l30 31l2 -3l-28 -28h-4zM977 74l33 35l2 -3l-33 -32h-2zM1014 150h4l-43 -44h-2v3zM936 106l-33 -32h-2l35 35v-3zM899 106l-2 3h2l41 41h2zM862 106l-33 -32h-4l35 35zM823 106v3l41 41h2zM786 106l-32 -32h-2l32 35zM750 106 h-2v3l40 41h5zM711 106l-31 -32h-4l35 35v-3zM674 106l-2 3h2l41 41h2zM637 106l-33 -32h-4l35 35zM598 106v3l41 41h4zM561 106l-33 -32h-2l33 35zM524 106h-2v3l41 41h4zM487 106l-32 -32h-4l34 35zM449 106l-3 3h3l40 41h3zM412 106l-33 -32h-4l35 35zM375 106h-2v3 l41 41h4zM334 109l2 -3l-33 -32h-2zM262 106l-16 -16q-2 0 -2 2l16 17zM297 109h2l39 41h4l-43 -44zM223 109l45 45h2l-47 -48v3zM217 178h2l-24 -26q0 2 -2 2zM199 197l2 -2l-13 -11v2zM1087 1157l-30 -29l-6 -6l34 37zM973 1122l37 37l2 -2l-37 -37l-2 -2v2v-2l-8 -8h-2 l10 10v2zM1049 1159l57 60v-5l-57 -57v2zM936 1159v-2l-37 -37v-2v2v-2l-8 -8h-4l10 10l2 2zM973 1159l26 27h5l-29 -29h-2v2zM860 1159l2 -2l-37 -37l-2 -2v2v-2l-8 -8h-4l10 10l2 2zM897 1159h2l27 27h2l-29 -29zM784 1159l2 -2l-36 -37l-2 -2v2v-2l-9 -8h-2l11 10v2z M823 1159l27 27h4l-31 -29v2zM711 1159v-2l-37 -37v-2v2v-2l-8 -8h-4l10 10l2 2zM748 1159l26 27h4l-28 -29h-2v2zM635 1159l2 -2l-37 -37l-2 -2v2v-2l-8 -8h-4l10 10l2 2zM672 1159h2l26 27h2l-28 -29zM559 1159l2 -2l-37 -37l-2 -2v2v-2l-8 -8h-2l10 10v2zM598 1159l27 27 h4l-31 -29v2zM522 1159l27 27h4l-29 -29h-2v2zM446 1159h3l26 27h2l-28 -29zM449 1120v-2l-7 -4v2l4 4l3 2l36 37l2 -2l-36 -37l-2 -2v2zM852 700v-4l-27 -26l-2 -2v2v-2l-37 -35h-2l37 37l2 2zM823 633v-2l-12 -13q-2 -2 -10 -6l22 21v0zM750 633l-2 -2l-33 -35h-4l37 37h2 zM674 672h4l-4 -2v-2v2v-2l-37 -35h-2l37 37zM674 633v-2l-35 -35h-2l35 37h2zM748 668l-37 -35l37 37v2l2 2h4l-4 -4l-2 -2v2v-2zM598 631l-35 -35h-2l37 37v0v-2zM598 668l-37 -35h-2l37 37l2 2h2h2l-2 -2l-2 -2v2v-2zM522 631l-33 -35h-4l37 37h2zM522 668l-35 -35h-2 l37 37v2h2h2l-2 -2l-2 -2v2v-2zM449 631l-7 -6v4l4 4h3v-2zM449 670v-2l-7 -4v2l4 4l3 2h4l-2 -2l-2 -2v2z" />
<glyph unicode="F" horiz-adv-x="1302" d="M1067 1159l2 -2l-37 -37l-2 -2v2v-2l-8 -8h-4l10 10l2 2zM1028 1159h2l41 41q4 4 8 4l-49 -47zM952 1120l2 2l37 37l2 -2l-37 -37l-2 -2v2v-2l-8 -8h-2zM918 1159v-2l-37 -37v-2v2v-2l-11 -8h-2l11 10l2 2zM954 1159l27 27h4l-29 -29h-2v2zM842 1159l2 -2l-37 -37l-2 -2 v2v-2l-8 -8h-4l10 10l2 2zM879 1159h2l26 27h2l-28 -29zM766 1159l2 -2l-37 -37l-2 -2v2v-2l-8 -8h-2l10 10v2zM805 1159l26 27h3l-29 -29v2zM692 1159v-2l-37 -37v-2v2v-2l-8 -8h-4l10 10l2 2zM729 1159l27 27h4l-29 -29h-2v2zM616 1159l2 -2l-36 -37l-2 -2v2v-2l-9 -8h-4 l11 10l2 2zM653 1159h2l27 27h2l-29 -29zM580 1159l26 27h4l-30 -29v2zM467 1157l-29 -29v2l29 29v-2zM504 1159l26 27h5l-29 -29h-2v2zM438 1165v4l19 17h2zM504 1120v-2l-8 -8h-2l10 10v2l37 37l2 -2l-37 -37l-2 -2v2zM358 76l33 33l2 -3l-26 -26q-4 -4 -9 -4zM354 109 l60 59v-4l-60 -58v3zM279 72l36 37l2 -3l-36 -36l-2 -2v2v-2l-7 -7h-2l9 9v2zM221 88l21 21l2 -3l-21 -20zM279 109l26 26h4l-28 -29h-2v3zM203 109h2l37 36h2l-39 -39zM199 176l-15 -14v2l13 12h2zM805 633v-2l-33 -33h-4l37 35v0zM803 670l2 2l18 18q4 2 8 6l-24 -26 l-2 -2v2v-2l-37 -35h-2zM731 672h2l-2 -2l-2 -2v2v-2l-37 -35l37 37v2h2zM731 633l-2 -2l-33 -35h-4l37 37h2zM655 672h4l-4 -2v-2v2v-2l-37 -35h-2l37 37zM655 633v-2l-34 -35h-3l35 37h2zM580 672h4l-2 -2l-2 -2v2v-2l-37 -35h-2l37 37zM580 633v-2l-35 -35h-2l37 37v0z M506 672h2l-2 -2l-2 -2v2v-2l-37 -35l37 37v2h2zM506 633l-2 -2l-33 -35h-4l37 37h2z" />
<glyph unicode="G" horiz-adv-x="1484" d="M1237 1120l2 2l10 8v-2l-8 -8l-2 -2v2v-2l-37 -37l-2 2zM1239 1083l2 -2h-2l-55 -55q-1 0 -2 -1t-2 -1zM1163 1083h2v-2l-57 -55h-2zM1128 1081l-2 2l11 11h4zM1090 1083v-2l-31 -30q-2 0 -2 2zM1053 1081l-2 2l28 29l2 -2zM1014 1120v2l18 17h2l-18 -19l-2 -2v2v-2 l-27 -26q0 2 -2 2zM1014 1083l2 -2h-2l-2 -2h-2zM938 1120l2 2l37 37v-2l-37 -37v-2v2v-2l-4 -4q-2 0 -4 2zM872 1130l29 29l2 -2l-29 -27h-2zM938 1159h2l18 21l3 -2l-21 -21zM805 1137l20 22l2 -2l-20 -20h-2zM864 1159l39 39h2l-41 -41v2zM725 1133l27 26v-2l-25 -24h-2z M788 1159l52 51h4l-53 -53h-3v2zM676 1159l2 -2l-37 -37l-2 -2v2v-2l-16 -16q-2 -2 -7 -2l21 20l2 2zM713 1159h2l51 53h4l-55 -55zM600 1159l2 -2l-37 -37l-2 -2v2v-2l-35 -37l-2 2l37 37v2zM639 1159l37 37h4l-41 -39v2zM453 1008zM487 1008l2 2l74 73l2 -2h-2l-74 -73h-2 zM1315 332l-74 -76l-2 2v0l74 76zM1239 221l37 37l2 -2l-37 -37h-2v0l-37 -37h-2l37 37zM1165 219l2 2zM1165 180l-69 -67q-1 0 -2 -1t-2 -1l71 71h2v-2zM1165 219l-37 -37h-2l35 35q0 2 4 2zM1051 109l2 -3l-17 -16q-2 -2 -6 -2zM1014 109l73 73h3v0v-2l-74 -74h-2v3z M940 106l-2 3h2l37 38q4 0 4 3zM864 106v3l23 22h2zM940 70v-2l-6 -5q-2 0 -4 -2l8 9l2 2l37 37v-3l-37 -36v-2v2zM791 106h-3v3l17 16h4zM864 70v-2l-16 -17h-4l18 19l2 2l37 37l2 -3l-37 -36l-2 -2v2zM715 106l-2 3h2l18 18h2zM788 70v-2l-18 -19h-2l20 21v2l37 37l2 -3 l-36 -36l-3 -2v2zM639 106v3l27 26h4zM715 70v-2l-15 -13h-2l15 15l2 2l37 37v-3l-37 -36h2l-2 -2v2zM600 109l2 -3l-22 -22h-2zM565 106h-2v3l43 41h2zM639 70v-2h-2h-2l2 2l2 2l37 37l2 -3l-37 -36l-2 -2v2zM526 109l2 -3l-2 -2l-2 2zM549 170l2 -2l-51 -51l-2 2zM489 182 v-2l-36 -37l-2 2l36 37h2zM426 233q0 -2 2 -2l-12 -12h-2v0l-27 -29q-2 0 -2 3l27 26l2 2zM416 182l-2 -2l-6 -6q-2 0 -2 2l8 6h2zM473 203l-20 -21h-2l22 23v-2zM344 227l31 31l2 -2l-31 -31q0 2 -2 2zM338 258h2l20 23q2 0 2 -2l-22 -23v2h-2zM293 285q-2 0 -2 2l31 30 l2 -2zM305 334l-2 -2l-2 2l2 2zM262 371h2l4 6q0 -2 2 -2l-4 -4l-2 -2v2v-2l-18 -19q-2 0 -2 2zM219 397l-2 2l8 9h2zM207 424q-2 0 -2 2l16 16l2 -2zM264 332l-4 -4l-2 2l6 4v-2v0zM188 481l-4 -4v2l4 4l2 -2h-2zM182 516l2 -2l-8 -8v2zM1073 618v-4l-51 -49h-2zM1016 633 l-2 -2l-66 -66h-4l70 68h2zM1061 641l-8 -8h-2l6 8h4zM940 633v-2l-68 -66h-2l68 68h2zM983 641h2l-8 -8zM907 641h4l-8 -8h-2zM864 633v-2l-57 -58h-4zM827 633h-2l9 8h2zM788 633h3l-3 -2l-24 -25h-2zM778 659h2l-28 -26z" />
<glyph unicode="H" horiz-adv-x="1378" d="M1180 109l39 41v-5l-39 -39l-2 3h2zM1217 182l6 6v-2zM1104 72l37 37l2 -3l-37 -36l-2 -2v2v-2l-8 -9h-4l10 11zM1038 82l27 27l2 -3l-27 -26q0 2 -2 2zM1104 109l26 28h5l-31 -31v3zM1028 109l35 32h2l-35 -35h-2v3zM995 150l21 20v-2l-21 -21v3zM997 188l-4 -6v2z M354 109l29 30q0 -4 -2 -6l-27 -27l-2 3h2zM315 109l2 -3l-36 -36l-2 -2v2v-2l-9 -9h-4l10 11l3 2zM213 78h-2l29 31l2 -3zM279 109l28 30h4l-32 -33v3zM203 109l33 30h2l-33 -33h-2v3zM164 141v2l22 23l2 -2zM168 182h-2l2 2v-2zM967 684v-2l-11 -12l-2 -2v2v-2l-36 -35h-3 l37 37l2 2zM954 633v-2l-18 -19h-4l20 21h2zM895 688h4l-18 -18l-2 -2v2v-2l-37 -35h-2l37 37l2 2zM881 633l-2 -2l-19 -19h-2l21 21h2zM819 688h4l-18 -18v-2v2v-2l-37 -35h-2l37 37l2 2zM805 633v-2l-21 -19h-2l21 21h2zM745 688h3l-17 -18l-2 -2v2v-2l-37 -35h-2l37 37 l2 2zM729 633v-2l-18 -19h-4l22 21v0zM670 688h4l-19 -18l-2 -2v2v-2l-37 -35l37 37v2zM655 633l-2 -2l-18 -19h-2l20 21h2zM596 688h2l-18 -18v-2v2v-2l-37 -35h-2l37 37l2 2zM580 633v-2l-21 -19h-2l21 21h2zM520 688h2l-16 -18l-2 -2v2v-2l-37 -35h-2l37 37l2 2zM504 633 v-2l-19 -19h-4l23 21v0zM428 631l-14 -15v2l14 15h2zM428 670v-2l-14 -15v4l14 13v2l16 16h5l-19 -18l-2 -2v2z" />
<glyph unicode="I" horiz-adv-x="569" d="M373 100q-6 -8 -17 -16zM344 109l53 55v-4l-53 -54l-2 3h2zM268 72l37 37l2 -3l-37 -36l-2 -2v2v-2l-6 -7h-4l8 9zM209 86l22 23v-3l-20 -20h-2zM268 109l27 26h2l-27 -29h-2v3zM193 109h2l34 36h2l-36 -39zM186 174l-16 -16v2l14 16zM168 195h2h-2z" />
<glyph unicode="J" horiz-adv-x="1310" d="M985 221l37 37l2 -2l-37 -37h-2v0l-37 -37l37 37v2zM985 182h2l-2 -2l-43 -43q-2 -2 -10 -6zM872 109l2 -3l-16 -16q-1 0 -3 -1t-3 -1zM836 109l73 73h2v-2l-75 -74v3zM762 106h-2v3l35 34q4 0 4 2zM686 106l-2 3h2l19 18h4zM760 70v-2l-8 -9l-4 -2l12 13v2l37 37l2 -3 l-37 -36l-2 -2v2zM612 106h-2v3l17 16h4zM686 70v-2l-18 -19h-4l20 21l2 2l37 37v-3l-35 -36l-2 -2v2zM537 106l-2 3h2l22 22h2zM610 70v-2l-16 -17h-2l16 19l2 2l37 37l2 -3l-37 -36l-2 -2v2zM498 109l2 -3l-29 -26h-2zM461 106l-2 3h2l37 36h2zM537 70v-2l-7 -7q-1 0 -2 1 t-2 1l9 7l2 2l34 37l2 -3l-36 -36v-2v2zM422 109l2 -3l-4 -4h-2zM442 166q0 -2 2 -2l-49 -49q-2 0 -2 2zM387 182l-2 -2l-37 -37q0 2 -2 2l39 37h2zM369 201l-21 -19l19 21q2 0 2 -2zM252 236v2l20 20l2 -2zM311 180l-4 -2h-2l4 4h2v-2zM311 219l-22 -22h-2l22 22l2 2l11 12 l2 -2l-13 -12v0zM186 393l-10 -10l-2 2l10 10q0 -2 2 -2zM174 418l-6 -4v2l4 4zM238 258h-2l26 29l2 -2zM229 326l-20 -23l-2 2l20 23zM213 348v-2l-14 -14l-2 2z" />
<glyph unicode="K" horiz-adv-x="1310" d="M1161 72l37 37l2 -3l-37 -36h-2v0q-1 0 -2 -1t-2 -1l2 2zM1221 168v-2v-2l-60 -58v3zM1085 72l37 37l2 -3l-37 -36l-2 -2v2v-2l-2 -2h-2l4 4v2zM1112 135h2l-27 -29h-2v3zM1049 109v-3l-11 -12l-2 2zM1053 152l2 -2l-33 -33l-2 2zM1012 182v-2l-19 -18l-2 2l19 18h2z M969 254l2 -2l-21 -21l-2 2zM936 258l18 18l2 -2l-20 -18v2v0zM997 207h2l-20 -21l-2 2zM885 391l-21 -20l-2 2l21 20zM862 408h-2v2l8 6l2 -2zM926 324l2 -2l-21 -21l-2 2zM911 346l2 -2l-14 -12l-2 2zM821 440l-2 2l21 21v-2zM825 483v-2l-2 2l2 2v-2zM748 557v2l2 -2v-2z M733 580v2l21 20v-2zM711 670v-2v2zM778 510l-2 2l8 8l2 2l11 10v-2l-9 -10l-2 -2v2v-2zM662 694v2l12 13v-2zM711 633h2l-2 -2l-6 -6v2zM690 651l19 19l2 2v-2v-2l-21 -19v2zM598 709l2 -2l-37 -37l-2 -2v2v-2l-37 -35h-2l37 37l2 2zM635 709h2l31 30l-31 -32v2h-2z M487 557h-2v2l76 74v0v-2zM449 557l-25 -27v5l25 24v-2zM1085 1159l70 70v-4l-68 -68h-2v2zM1012 1081l-76 -73v0v2l74 73h2v-2zM860 969l39 39l-37 -37zM860 932v-2l-2 2l2 2v-2h2h-2zM860 969l-14 -17l-2 2zM342 76q-4 -4 -6 -4l37 37l2 -3zM260 72l37 37l2 -3l-37 -36 l-2 -2v2v-2l-4 -5h-4l8 7v2zM336 109l61 63v-4l-61 -62v3zM205 90l18 19v-3l-16 -16h-2zM260 109l27 26h2l-27 -29h-2v3zM188 109v2l37 36h2zM182 178l-12 -14v4l12 12v-2z" />
<glyph unicode="L" horiz-adv-x="1202" d="M1016 86l22 23l2 -3l-18 -16q-4 -4 -6 -4zM1075 182v-2l-71 -74h-3v3zM930 74l33 35l2 -3l-33 -32h-2zM967 150h4l-43 -44l-2 3h2zM891 106l-33 -32h-4l35 35zM815 106l-33 -32h-2l33 35zM852 109l41 41h2l-43 -44v3zM739 106l-32 -32h-2l34 35v-3zM776 109l41 41h4 l-43 -44h-2v3zM666 106l-33 -32h-4l35 35zM700 109h2l41 41h2l-43 -44zM590 106l-33 -32h-2l33 35zM627 109l41 41h2l-43 -44v3zM514 106l-31 -32h-4l35 35v-3zM551 109l41 41h4l-43 -44h-2v3zM440 106l-32 -32h-5l35 35zM475 109h2l41 41h2l-43 -44zM365 106l-33 -32h-2 l32 35zM401 109l41 41h2l-43 -44v3zM289 106l-31 -32h-4l35 35v-3zM326 109l41 41h4l-43 -44h-2v3zM215 106l-14 -14q-2 0 -2 2l14 15zM250 109h2l41 41h2l-43 -44zM225 156l-45 -47l-2 2l45 45h2zM174 182q0 -2 2 -2l-24 -24v4zM156 201v-2l-9 -11v2v3z" />
<glyph unicode="M" horiz-adv-x="1593" d="M1362 72l37 37l2 -3l-37 -36l-2 -2v2v-2l-2 -2q-1 0 -3 -1.5t-3 -1.5l6 7zM1362 109l68 69v-4l-68 -68v3zM1286 72l37 37l2 -3l-37 -36l-2 -2v2v-2l-2 -2q-2 0 -2 2l4 2v2zM1239 98l10 11v-3l-8 -10zM1286 109l27 26h2l-27 -29h-2v3zM1227 121q-2 0 -2 2l30 31l2 -2z M350 106l-31 -28q-4 -4 -8 -6l37 37zM236 72l36 37l2 -3l-36 -36l-2 -2v2v-2l-5 -5h-2l7 7v2zM311 109l58 57v-2l-58 -58v3zM184 94l15 15v-3l-15 -14v2zM236 109l26 26h2l-26 -29h-2v3zM170 115h-2l33 35q1 0 4 -3zM162 180l-6 -6v4l4 4h2v-2zM1174 709l2 -2l-37 -37l-2 -2 v2q0 1 1 2t1 2zM1190 760l-19 -19q1 1 2.5 3.5t2.5 3.5l14 16v-4zM1137 633v-2l-39 -39q1 1 2 3t2 3l35 35v0zM1098 559l2 -2l-37 -37l-2 -2q1 1 2 3t2 3zM1135 668l2 2v-2h-2zM1063 481h-2l-37 -37q1 1 2 3.5t2 3.5l33 32zM1024 408l-35 -37l-2 -2q1 1 2 3t2 3zM1061 518z M950 256l-35 -35q0 3 3 6l30 31zM987 332l-37 -37q1 1 2 3t2 3l31 33l2 -2v0zM838 106h-2v3l75 73h2l-2 -2zM762 106l-2 3h2l24 26h5zM836 70v-2v-2h-7l7 4v2l36 37l2 -3l-36 -36v-2zM723 109l2 -3l-10 -10q0 2 -2 2zM729 152q0 -2 2 -2l-31 -29v2zM688 182l-2 -2l-10 -10v2 l10 10h2zM762 70v-2l-4 -5l-2 3l4 4l2 2l37 37l2 -3l-37 -36l-2 -2v2zM637 248l12 10v-2l-10 -10zM625 272l16 15v-2l-14 -15zM678 213v-2l-14 -14v2zM563 395v2l10 11h2zM551 420v2l14 16v-2zM612 332l-10 -10l-2 2l10 10l2 -2v0zM590 346l-2 2l14 14l2 -2zM489 547l-2 2 l11 10l2 -2zM477 571l-2 2l14 15l3 -2zM537 481l-11 -10l-2 2l13 10v-2zM514 496l-2 2l16 14v-2zM424 707l-10 -11v2l10 11v-2zM401 721l-2 2l17 14v-2zM461 631l-10 -10v2l10 10h2zM453 664v-2l-15 -17v2z" />
<glyph unicode="N" horiz-adv-x="1361" d="M1126 106v3l74 73h2v-2zM1053 106h-2v3l26 26h4zM1126 70v-2l-6 -7h-4l8 9l2 2l37 37l2 -3l-37 -36l-2 -2v2zM1014 109v-3l-4 -4l-2 2zM1022 156l2 -2l-31 -31l-2 2zM977 182v-2l-16 -14v2l14 14h2zM1051 70v-2q-2 0 -2 2h2v2l36 37l3 -3l-37 -36l-2 -2v2zM936 256h2 l-27 -27v2zM901 258l19 21l2 -3l-21 -20v2v0zM969 215l2 -2l-27 -27v2zM840 385v-2l-13 -12l-2 -2v2v-2l-10 -13l-2 2l12 13zM887 322l2 -3l-25 -26l-2 2zM872 340l-8 -8l-2 2l8 8zM780 401l8 7l-6 -9zM791 449v-3l-25 -26l-2 2zM711 553l-27 -27l-2 2l27 27zM676 557v2 l16 16l2 -2zM752 481l-19 -18l-2 2l19 18h2v-2zM717 483l-2 2l26 27l2 -2zM635 590v2l24 26l3 -2zM645 637l-6 -4h-2l6 6zM600 670v2l10 10l2 -2l-10 -10l-2 -2v2v-2l-14 -15v2zM553 698l10 11l2 -2l-12 -11v2zM537 717v2l24 26l2 -2zM457 823l-2 2l26 27v-2zM526 780 l-20 -20l-2 2l20 22l2 -2v-2zM514 807l-25 -25l-2 2l27 25v-2zM451 858v2l14 12v-2l-12 -14zM408 887l-2 2l26 26v-2zM418 934l-4 -2l-2 2l4 2zM301 109l66 65v-4l-66 -64v3zM295 66l4 4l2 2l37 37l2 -3l-37 -36l-2 -2v2v-2h-2q-2 -2 -4 -2zM188 106l-10 -10h-2l12 13v-3z M225 109l27 26h2l-27 -29h-2v3zM164 119q-2 0 -2 2l31 31q2 0 2 -2zM225 70v-2l-2 -2h-2l4 4v2l37 37l2 -3l-37 -36l-2 -2v2z" />
<glyph unicode="O" horiz-adv-x="1597" d="M1425 555l-4 -6q0 4 2 6l2 4h2zM1391 481zM1354 408l-31 -31q2 2 10 14l19 17h2zM1315 332l-74 -76l-2 2v0l74 76zM1257 240q-1 -2 -8 -9zM1165 180l-53 -51q-1 -1 -3 -2t-3 -2l57 57h2v-2zM1165 219l-37 -37h-2l37 37l2 2l31 33q1 1 3 2t3 2v-2l-37 -37v0v0zM1051 109 l2 -3l-13 -12q-2 0 -4 -2zM1014 109l76 73v0v-2l-74 -74h-2v3zM940 106l-2 3h2l39 38q3 3 4 3zM864 106v3l21 20q2 2 4 2zM940 70v-2l-6 -5q-1 0 -2 -1t-2 -1l8 9l2 2l37 37v-3l-37 -36v-2v2zM791 106h-3v3l17 16h4zM864 70v-2l-16 -17h-4l18 19l2 2l37 37l2 -3l-37 -36 l-2 -2v2zM715 106l-2 3h2l18 20q2 -2 4 -2zM788 70v-2l-18 -19h-2l20 21v2l37 37l2 -3l-36 -36l-3 -2v2zM641 106h-2v3l29 28h2zM715 70v-2l-13 -11h-2l13 13l2 2l37 37v-3l-35 -36l-2 -2v2zM641 70h-2v0h-2l2 2l37 37l2 -3zM600 109l2 -3l-20 -20l-2 2zM608 154l2 -2 l-45 -46h-2v3zM553 172h2l-51 -51h-2zM489 182v-2l-32 -33l-2 3l32 32h2zM528 182h-2h2zM430 238q0 -2 2 -2l-16 -17h-2v0l-23 -24l-2 2l23 22l2 2zM416 182l-2 -2l-2 -2q0 2 -2 2l4 2h2zM477 207l-24 -25h-2l24 27zM350 231l27 27v-2l-25 -25h-2zM340 256v2h-2h2l27 27z M299 291h-2l31 31v-3zM309 340l-6 -8l-2 2l8 8v-2zM225 408h2l-2 -2v2zM229 446l-16 -16v2l16 17v-3zM252 356v2l10 13h2l10 10h2l-10 -10l-2 -2v2v-2zM188 520v-2l-4 -4v2l4 4v2h2q1 0 3 -2h-3l-2 -2v2zM1182 874v3v-3zM1114 993q-2 0 -2 2l14 13h2zM1096 1014h-2l26 26 q0 -2 2 -2zM1163 934l2 -2v0l-6 -6q-2 0 -2 2zM1143 950l14 15q2 0 2 -2l-14 -15q0 2 -2 2zM1090 1081l-33 -32q0 2 -2 2l35 32v-2zM1073 1102l-20 -21l-2 2l20 21q0 -2 2 -2zM1014 1120v2l16 17l2 -2l-16 -17l-2 -2v2v-2l-25 -24h-2zM1014 1083l2 -2h-2v-2l-2 2zM938 1120 l2 2l37 37v-2l-37 -37v-2v2v-2l-4 -2h-2zM874 1130l27 29l2 -2l-26 -27h-3zM938 1159h2l21 21h2l-23 -23zM805 1137l20 22l2 -2l-20 -20h-2zM864 1159l41 41q0 -2 2 -2l-43 -41v2zM723 1130l29 29v-2l-25 -27h-4zM788 1159l54 51h2l-53 -53h-3v2zM676 1159l2 -2l-37 -37 l-2 -2v2v-2l-25 -24q-1 0 -3 -1t-3 -1l29 28l2 2zM713 1159h2l51 51q2 2 4 2l-55 -55zM600 1159l2 -2l-37 -37l-2 -2v2v-2l-35 -37l-2 2l37 37v2zM639 1159l33 33l4 2l-35 -37h-2v2zM563 1083l2 -2h-2l-74 -73h-2l2 2z" />
<glyph unicode="P" horiz-adv-x="1318" d="M924 1053l12 10v-2l-10 -10zM920 1083l8 11l2 -2l-10 -11v2zM881 1120l2 2l18 19l2 -2l-20 -19v-2v2v-2l-21 -18h-2zM883 1159v-2v0l-2 2h2zM805 1120l2 2l37 37l2 -2l-37 -37l-2 -2v2v-2l-4 -4h-2zM807 1159l24 25h3l-27 -27v2zM731 1120v2l37 37l2 -2l-37 -37l-2 -2v2 v-2l-2 -2h-4zM694 1159v-2l-37 -37v-2v2v-2l-4 -2h-2l4 4l2 2zM731 1159l33 33h4l-35 -35h-2v2zM618 1159l3 -2l-37 -37l-2 -2v2v-2l-2 -2h-5l5 4l2 2zM655 1159h2l31 33h4l-35 -35zM543 1159l2 -2l-37 -37l-2 -2v2v-2l-2 -2h-2l4 4v2zM582 1159l32 33h2l-34 -35v2z M506 1159l33 33h4l-35 -35h-2v2zM430 1159h2l33 33h2l-35 -35zM432 1120v-2l-4 -2h-2l4 4l2 2l37 37v-2l-35 -37l-2 -2v2zM356 109l13 12q-1 -2 -7 -8l-6 -7v3zM317 109l2 -3l-36 -36l-2 -2v2v-2l-9 -9h-4l13 11v2zM211 72l-2 2l35 35l2 -3zM281 109l34 34q1 0 3.5 1t3.5 1 l-39 -39h-2v3zM205 109h2l29 28h2l-31 -31zM158 133v2l24 25h2zM1182 860l6 6v-4l-6 -6v2v2zM1106 709l45 45q0 -2 -4 -6l-39 -41l-2 2v0zM1145 782l-2 2l35 33q0 -2 -2 -4zM1069 709l2 -2l-37 -37l-2 -2v2v-2l-37 -35h-2l37 37l2 2zM1032 633v-2l-8 -8q-1 0 -6 -5l12 15h2z M958 633l-2 -2l-55 -56l-4 -2l59 60h2zM883 633v-2l-72 -72h-4l74 74h2zM952 664l-32 -31l28 31h4zM854 641l-8 -8h-2l6 8h4zM768 559l2 -2h-2v2zM733 557h-2v2l76 74v0v-2zM770 633h-2h4h-2zM694 557h-2l2 2v-2zM657 557l-2 2h2l72 74h2h2l-2 -2zM696 633h-2h2zM621 557h-5 l2 2zM582 557v2l73 74h2v-2zM621 633h-3h3zM545 557h-2v2zM508 557h-2v2l74 74h2v-2zM508 633l-2 -2l-74 -74l-2 2h2l74 74h2zM545 633zM469 557h-2l2 2v-2zM471 633h-2h2zM432 631l-26 -27v4l24 25h2v-2z" />
<glyph unicode="Q" horiz-adv-x="1585" d="M731 408h2l-4 -7q0 2 -2 2zM731 444v-2l-10 -10v2zM1221 -117v-2v0l-74 -76l-2 2v3zM1182 -193l-2 -2zM1087 -213l21 20v-2l-18 -18h-3zM1120 -141h4l-53 -54v2h-2l2 3zM1001 -72l3 -2l-7 -6l-2 -2v2v-2l-8 -8l-2 2l8 8l2 2zM1059 -127l2 -2l-35 -35l-2 2zM1038 -115 l-4 -4l-2 2l4 4zM924 76l2 -2l-4 -4l-2 -2v2v-2l-11 -11l-2 2l13 11v2zM963 2l2 -2l-17 -16l-2 2zM883 109v-3l-37 -36v-2v2v-2l-19 -17h-4l21 19l2 2zM846 109l20 20q2 0 4 2l-24 -25l-2 3h2zM770 106v3l16 16h2zM696 106h-2v3l21 20h2zM770 70v-2l-18 -19l-2 2l18 19l2 2 l37 37l2 -3l-37 -36l-2 -2v2zM621 106l-3 3h3l28 28h2zM694 70v-2l-10 -11h-2l12 13v2l37 37l2 -3l-37 -36l-2 -2v2zM623 70h-5l3 2l36 37l2 -3zM582 109l2 -3l-21 -18h-2zM590 154q2 0 2 -2l-45 -46h-2v3zM535 172h2l-52 -51q0 2 -2 2zM471 182v-2l-33 -30h-2l33 32h2z M510 182h-2h-2l2 2zM395 182v-2h-2v2h2v0zM459 207l-25 -25h-2l25 27q2 0 2 -2zM393 219l2 2l17 17l2 -2l-17 -17h-2v0l-22 -22l-2 2zM334 231q0 2 -2 2l24 25l2 -2zM322 256l-3 2v0l29 29v-2zM281 293l28 31q0 -2 2 -2zM293 340l-10 -8v2l8 8zM213 449l-16 -17v4l14 15z M236 358l-3 2l11 11h2l10 12l2 -2l-12 -10v-2v2v-2zM170 520v-2l-2 -2v2v2l2 2l4 2v-2l-2 -2l-2 -2v2zM1163 877l2 2v-2v-3zM1094 995l14 13l-12 -15q0 2 -2 2zM1077 1014v2l27 26v-2zM1145 934v-2h2h-2l-4 -6q0 2 -2 2zM1126 952l15 15l2 -2l-17 -15v2zM1071 1081l-33 -30 l31 32h2v-2zM1055 1104l-21 -23l-2 2l21 21h2zM993 1120l2 2l19 17h2l-19 -19l-2 -2v2v-2l-24 -24l-2 2zM995 1083v-2v0h-2zM920 1120v2l36 37l2 -2l-36 -37l-2 -2v2v-2l-2 -2h-3zM854 1133l29 26v-2l-25 -27q-1 0 -4 3zM920 1159l22 23l2 -2l-22 -23h-2v2zM786 1137l21 22 l2 -2l-21 -20h-2zM844 1159h2l41 41h2l-43 -43zM702 1128l29 31l2 -2l-26 -27q-1 0 -2.5 -1t-2.5 -1zM770 1159l51 51h4l-55 -53v2zM657 1159l2 -2l-36 -37l-2 -2v2v-2l-31 -28q-1 -1 -3 -2.5t-3 -2.5l34 35l3 2zM694 1159l54 51h2l-54 -53h-2v2zM545 1122l30 31q1 1 4.5 2 t4.5 2l-37 -37l-2 -2v2v-2l-37 -37l-2 2l37 37zM618 1159h3l30 31q2 0 4 2l-34 -35zM545 1083l2 -2h-2l-74 -73h-2l2 2zM432 934l2 2zM1409 557zM1333 408l-10 -13q5 10 8 13h2zM1296 332l-75 -76v2v0l73 76zM1257 258l3 -2l-37 -37h-2v0l-11 -10q-16 -16 -20 -19l29 29l2 2 zM1167 244q6 3 11 8l-31 -33h-2v0l-2 -2v2h2v2z" />
<glyph unicode="R" horiz-adv-x="1327" d="M1171 860l7 4q0 -2 -2 -4l-2 -4l-3 2v2zM1135 782v2l26 27l-2 -4zM1028 678l31 31l2 -2l-33 -31v2zM1096 709h2l6 8q-3 -5 -8 -8zM1022 709l33 32q4 4 10 7l-43 -41v2v0zM1098 106l-2 3h2l41 41q1 1 3 2t3 2zM1059 109l2 -3l-37 -34h-2zM1051 137h2l-31 -31v3zM1098 70 v-2l-11 -9h-2l11 11l2 2l37 37v-3l-37 -36v-2v2zM985 106zM997 160l2 -2l-28 -27v2zM948 182l-2 -2v2v0h2zM872 373l2 -2h-2v-2v2v-2l-12 -13q-2 0 -2 2l12 13h2v2zM907 258h2v-2q0 2 -2 2zM911 297v-2l-14 -14l-2 2zM872 332q-2 0 -2 2zM946 219l-12 -14v2l12 12v2l2 2v-2 v-2h-2zM834 408h2l-2 -2v2zM821 432v2l15 15v-3zM795 520l2 2h2v-2v0l-2 -2v2v-2l-13 -12v2zM750 584l-2 2l14 12v-2zM797 483v-2v2zM680 590h-2l43 43h2l-2 -2zM719 666l-35 -33l31 33h4zM604 590h-2l43 43h2v-2zM643 666l-33 -33h-2l31 33h4zM530 590h-4l45 43v0v-2z M567 666l-32 -33h-3l33 33h2zM455 590h-2l43 43h2l-2 -2zM494 666l-33 -33h-2l30 33h5zM422 631l-23 -23v4l21 21h2v-2zM416 666h2l-19 -19v2zM346 109l19 18q-1 -1 -2.5 -3t-2.5 -3l-12 -15h-2v3zM309 109v-3l-37 -36v-2v2v-2l-10 -9h-4l12 11l2 2zM201 74l32 35l3 -3z M270 109h2l33 32q2 2 4 2l-37 -37zM197 109l28 28h2l-30 -31v3zM152 135l-2 2l24 25q2 0 2 -2zM918 1055l12 12v-2l-10 -12zM909 1083l15 15v-2l-15 -15v2zM870 1120l2 2l23 23q0 -2 2 -2l-25 -23v-2v2v-2l-20 -18h-2zM834 1159l2 -2l-37 -37l-2 -2v2v-2l-6 -4h-3l7 6l2 2z M870 1159h2l2 2q1 0 3 -2l-5 -2zM797 1159l24 25h2l-26 -27v2zM721 1120v2l37 37l2 -2l-37 -37l-2 -2v2v-2l-4 -4h-2zM684 1159v-2l-35 -37l-2 -2v2v-2l-4 -4h-4l6 6l2 2zM721 1159l31 31h4l-33 -33h-2v2zM608 1159l2 -2l-37 -37l-2 -2v2v-2l-4 -4h-4l6 6l2 2zM645 1159h2 l31 31h2l-33 -33zM532 1159l3 -2l-37 -37l-2 -2v2v-2l-4 -4h-3l7 6v2zM571 1159l31 31h2l-33 -33v2zM496 1159l30 31h4l-32 -33h-2v2zM420 1159h2l31 31h2l-33 -33zM422 1120v-2l-4 -4h-4l6 6l2 2l37 37l2 -2l-37 -37l-2 -2v2z" />
<glyph unicode="S" horiz-adv-x="1353" d="M1128 258v-2l-36 -37v0v0l-37 -37h-2l37 37l2 2zM1092 180l-41 -39q-1 -1 -4.5 -3t-4.5 -3l48 47h2v-2zM977 109l2 -3l-6 -6q-1 0 -3 -1t-3 -1zM940 109l76 73v0v-2l-74 -74h-2v3zM866 106l-2 3h2l43 45h6zM793 106h-2v3l26 26h2zM866 70v-2h-4l2 2l2 2l37 37v-3l-35 -36 l-2 -2v2zM717 106l-2 3h2l16 18h4zM791 70v-2l-15 -15h-2l14 17l3 2l36 37l2 -3l-36 -36l-2 -2v2zM641 106l-2 3h2l16 16h2zM717 70v-2l-21 -19h-2l21 21l2 2l35 37l2 -3l-37 -36v-2v2zM567 106h-2v3l23 22h2zM641 70v-2l-16 -17h-4l18 19l2 2l37 37l2 -3l-37 -36l-2 -2v2z M492 106l-3 3h3l30 30h2zM565 70v-2l-8 -9h-4l10 11l2 2l37 37l2 -3l-37 -36l-2 -2v2zM492 70v0h-3l3 2l36 37v-3zM453 109l2 -3l-25 -24q-2 0 -2 2zM416 106v3l43 43h2zM377 109l2 -3l-8 -8h-2zM397 166l2 -2l-57 -58h-2v3zM287 127h-2l53 55q2 0 2 -2zM313 190l-10 -8l8 8 h2zM266 180l-30 -30l-3 2l31 30h2v-2zM258 211l-29 -29h-2l29 31q2 0 2 -2zM154 256l-15 -14v2l13 14zM145 287l-10 -13v5l10 10v-2zM190 180h-2l2 2v0v-2zM190 219l-20 -22l-2 2l20 20l2 2l17 17h2l-16 -19h-3zM1165 1159l25 23v-2l-23 -23h-2v2zM1165 1120v2l19 17l-2 -4 l-15 -15l-2 -2v2v-2l-37 -37v2zM1116 1147q2 0 4 2l-28 -29v-2v2v-2l-37 -37l-2 2l37 37l2 2zM1042 1149l2 -2l-26 -27l-2 -2v2v-2l-27 -26l-2 2l27 26l2 2zM1016 1157h2h-2zM1090 1083h2v-2l-15 -14h-4zM940 1120v2l37 37l2 -2l-37 -37l-2 -2v2v-2l-8 -10q-2 2 -4 2z M866 1122l37 37v-2l-33 -35h-4zM940 1159l18 17h3l-19 -19h-2v2zM801 1133l26 26l2 -2l-24 -24h-4zM864 1159h2l33 33h2l-35 -35zM731 1137l21 22l2 -2l-21 -20h-2zM791 1159l45 45q2 0 2 -2l-45 -45h-2v2zM655 1137l23 22l2 -2l-23 -20h-2zM715 1159h2l51 51h2l-53 -53z M571 1126l31 33l2 -2l-31 -29zM639 1159h2l53 53h2l-55 -55zM565 1159l49 49h4l-51 -51h-2v2zM489 1159h3l24 25q2 2 6 2l-30 -29zM492 1120v-2l-29 -28q0 1 -1 2t-1 2l28 26l3 2l36 37v-2l-36 -37v-2v2zM940 520v2h2v-2l-2 -2v2v-2l-16 -16l-2 2zM877 532l26 27v-2l-24 -25 h-2zM866 559l31 33l2 -2l-33 -33l-2 2h2zM825 555l2 4l2 -2l-2 -2h-2zM850 618h2l-53 -53h-2zM791 633h2l-2 -2l-48 -47h-4zM752 633l16 16h2l-16 -16h-2zM717 631l-33 -31h-2l33 33h2v-2zM713 666l-33 -33h-2l33 33h2zM641 631l-16 -15h-2l16 17h2v-2zM641 668l-37 -35h-2 l37 37l2 2l10 12q2 -2 4 -2l-12 -12l-2 -2v2v-2zM565 709h2v-2zM539 643h-2l26 27l2 2l29 28l2 -2l-29 -28l-2 -2v2v-2zM455 707l-23 -23l-2 2l23 23zM489 709h3l16 18h4l-20 -20v2h-3zM416 707v2v0l39 39h2zM483 662q0 2 -2 2l8 6l3 2l36 37v-2l-36 -37v-2v2v-2zM358 725 h-2l47 47q1 -2 3 -2zM379 782l-2 2h2h2zM340 780l-25 -24v2l25 26v-2h2zM334 813l-31 -31v2l29 29h2zM264 858l2 2l6 6q0 -2 2 -2l-8 -8v2h-2zM223 889v4l15 14l2 -2zM266 819l-4 -4q0 2 -2 2l4 2l2 2l25 27l2 -2l-27 -27v0z" />
<glyph unicode="T" horiz-adv-x="1431" d="M766 72l37 37l2 -3l-35 -34q-2 -2 -4 -2v0l-2 -2l2 2v2zM834 176v-2v-2l-66 -66h-2v3zM692 72l37 37l2 -3l-37 -36l-2 -2v2v-2l-6 -5h-2l6 7zM637 92l16 17l2 -3l-16 -16q0 2 -2 2zM690 109h2l25 26h2h2l-29 -29zM623 111q0 2 -2 2l36 37q0 -3 2 -3zM614 182l2 -2 l-12 -12v4zM1253 1159l2 -2l-36 -37l-2 -2v2v-2l-7 -6l-4 -2l11 10v2zM1217 1159l43 41q4 4 6 4l-47 -47h-2v2zM1141 1120l2 2l37 37v-2l-37 -37v-2v2v-2l-8 -8h-5zM1104 1159l2 -2l-37 -37l-2 -2v2v-2l-8 -8h-4l10 10l2 2zM1141 1159h2l26 27h2l-28 -29zM1028 1159l2 -2 l-37 -37l-2 -2v2v-2l-8 -8h-2l10 10v2zM1067 1159l27 27h4l-31 -29v2zM991 1159l27 27h4l-29 -29h-2v2zM881 1157l-21 -20v2l19 20zM915 1159h3l26 27h2l-28 -29zM860 1174v4l8 8h4zM918 1120v-2l-9 -8h-4l10 10l3 2l36 37v-2l-36 -37v-2v2zM541 1120l2 2l35 37l2 -2 l-37 -37v-2v2v-2l-11 -8h-2zM504 1159l2 -2l-37 -37l-2 -2v2v-2l-8 -8h-4l10 10l2 2zM541 1159h2l26 27h2l-28 -29zM428 1159l2 -2l-37 -37l-2 -2v2v-2l-8 -8h-2l10 10v2zM467 1159l27 27h2l-29 -29v2zM354 1159v-2l-37 -37v-2v2v-2l-8 -8h-4l10 10l2 2zM391 1159l27 27h4 l-29 -29h-2v2zM279 1159l2 -2l-37 -37l-2 -2v2v-2l-9 -8h-2l9 10l2 2zM315 1159h2l27 27h2l-29 -29zM178 1130h-2l27 29l2 -2zM242 1159l26 27h4l-30 -29v2zM166 1159l33 33h4l-35 -35h-2v2zM154 1219l-19 -19v2l17 19zM135 1237z" />
<glyph unicode="U" horiz-adv-x="1431" d="M1227 408l-17 -19l4 8l11 11h2zM1245 465l2 2v-4l-4 -2q0 1 1 2t1 2zM1190 332h-2l-74 -76v2h-2h2l74 76v-2h2zM1151 258l2 -2l-37 -37h-2v0l-37 -37h-2l37 37l2 2zM965 106l-2 3h2l73 73h2l-2 -2zM999 182l13 13l8 4l-19 -17h-2zM926 109l2 -3l-35 -34h-4zM889 106v3 l55 55l4 2zM815 106h-2v3l27 26l4 2zM739 106l-2 3h2l17 18h4zM813 70v-2l-14 -15h-2l16 17v2l37 37l2 -3l-37 -36l-2 -2v2zM664 106v3l16 16h4zM739 70v-2l-20 -19h-2l20 21l2 2l37 37v-3l-37 -36v-2v2zM590 106h-2v3l24 22h2zM664 70v-2l-17 -15h-2l17 17l2 2l36 37l2 -3 l-36 -36l-2 -2v2zM551 109v-3l-29 -30l-2 2zM514 106l-2 3h2l35 34h2zM588 70v-2l-6 -7h-2l8 9v2l37 37l2 -3l-37 -36l-2 -2v2zM475 109l2 -3l-10 -10l-2 2zM492 162l2 -2l-54 -51l-2 2zM438 182v-2l-45 -45q0 2 -2 2l47 45v0zM365 182l-3 -2l-12 -12q-2 0 -2 2l14 12h3z M416 195l-15 -13h-2l15 15zM328 256l-35 -33v2l33 33v-2h2zM289 256v2h-2h2l16 18l2 -2zM330 184q0 2 -2 2l34 33v2l5 4q2 0 2 -2l-4 -4h-3v0zM270 313l-22 -24l-2 2l24 24v-2zM254 334l-2 -2l-2 2l4 2v-2zM188 457l-2 -4q0 2 -2 4l2 2zM213 371v-2l-2 -2l-2 2l2 2h2l10 10 q2 0 2 -2l-10 -8l-2 -2v2z" />
<glyph unicode="V" horiz-adv-x="1359" d="M1194 1122l2 6l29 29l-2 -6zM1225 1194l24 23v-3l-26 -26zM1155 1008l-18 -19l2 6l14 13h2zM1192 1081l-27 -24l2 4l23 22h2v-2zM1116 932l-8 -8l2 6l6 4v-2v0zM965 559h2v2v-4zM891 410l20 18l-4 -4l-16 -16v0v2zM930 481l-2 2l12 13l-4 -7zM825 229l-4 -4l-4 -6h-2v0 l-24 -26l4 8l20 18v2zM821 262l4 6l29 29l-4 -6zM854 332l-2 2h2l29 28l-4 -6zM741 109l56 55l-4 -6l-52 -52l-2 3h2zM668 106h-2v3l26 26h2zM627 109l2 -3l-21 -20q-2 0 -2 2zM627 145q2 0 2 -2l-37 -37l-2 3h2zM666 70v-2l-7 -7h-4l9 9l2 2l36 37l3 -3l-37 -36l-2 -2v2z M543 250l2 -2l-13 -12v2zM520 264l12 12v-4l-10 -10zM584 176v-2l-17 -16v2zM567 199v-2l-10 -13l-2 2zM475 406l2 -3l-12 -10v2zM453 422l12 10v-2l-10 -10zM510 328v-2l-10 -13l-2 4zM498 354l2 -2l-13 -12v2zM397 549l-2 2l8 8v-2zM385 575v3l10 12l2 -2zM440 481 l-10 -10v2l10 10l2 -2h-2zM420 498l-2 2l12 10v-2zM328 707v2l2 -2h-2zM317 733l-2 2l13 10l2 -2zM367 631l-5 -2v2l3 2h2v-2zM352 653l-2 2l12 13v-2zM260 901l-10 -12l-2 2l12 12v-2zM283 811v2l6 6l2 2l2 4l2 -2l-2 -4h-2v0zM147 1124l-2 2l13 13v-2zM193 1059l-13 -12v2 l10 12zM180 1083l-2 -2v2l2 2v-2zM215 971v-2v2v2l10 8l2 -2l-10 -8l-2 -2v2zM139 1159h2l4 6l2 -2l-6 -6zM125 1214l-10 -10l-2 2l10 11zM113 1243v-2l-2 -4v4z" />
<glyph unicode="W" horiz-adv-x="1714" d="M1653 1278l-4 -4v4l4 2v-2zM1642 1159h3q-3 0 -3 -2v2zM1642 1231l-10 -10q2 2 2 6l8 6h3zM1606 1081v2l22 23q0 -2 -2 -4zM1567 1008l2 2l43 43q0 -1 -1 -2t-1 -2l-41 -41h-2zM1532 856l-19 -18v4l17 16zM1567 934l2 -2v0l-39 -39q2 2 2 6zM1569 969l-21 -21q0 4 2 6 l17 17l2 2l26 24q-2 0 -2 -4l-24 -22v-2v2v-2zM1493 709l14 14l-2 -4l-12 -12v2zM1468 606l-47 -47q0 1 1 3t1 3l47 47q0 -1 -1 -3t-1 -3zM1456 633h-2l35 35q-2 -2 -2 -6zM1380 408l-14 -17q0 1 1 3t1 3zM1417 483l2 -2h-2l-33 -32q2 2 2 4zM1417 518l-14 -14q0 1 1 2t1 2 l12 12v2l35 33q0 -2 -2 -4l-31 -31l-2 -2v2v-2zM1343 258l17 18q0 -4 -2 -4l-15 -16v2h-2h2zM1288 92q-2 -2 -2 -4zM1268 106v3l55 55q0 -2 -2 -4zM1339 215l-32 -33h-2l36 37v2q0 -4 -2 -6zM1194 106h-2v3l33 30q0 2 4 2zM1155 109l2 -3l-18 -18l-2 2zM1122 111q-2 0 -2 2 l29 26h2zM1192 70v-2l-6 -7h-2l8 9v2l37 37l2 -3l-37 -36l-2 -2v2zM825 717l41 41l-2 -6l-39 -39v4zM854 784l27 25l-2 -4l-23 -23zM780 557v-2v2zM817 633h2l-2 -2l-22 -23l2 4zM817 668l-8 -6l2 4l6 4v2l33 33v-5l-31 -30l-2 -2v2v-2zM743 410l31 30v-4l-31 -28h-2z M780 481v2l11 11l-3 -5zM705 258l2 -2l-17 -16v4zM741 334l2 -2v0l-38 -39l2 4zM743 369l-24 -23l2 4l20 21h2l17 18l-2 -4l-15 -14v-2v2v-2zM668 109l16 16q0 -1 -1 -2t-1 -2l-14 -15v3zM594 106h-2v3l76 73v0v-2zM555 109v-3l-29 -28h-2zM592 70v-2l-8 -9h-4l12 11v2 l37 37l2 -3l-37 -36l-2 -2v2zM516 109h2l27 26h2l-29 -29zM492 154l-11 -11l-2 2l10 11q1 0 3 -2z" />
<glyph unicode="X" horiz-adv-x="1482" d="M1231 109l2 -3l-37 -36l-2 -2v2v-2l-6 -7h-4l8 9l2 2zM1194 109l70 69v-2l-70 -70v3zM1118 109l29 26h2l-29 -29h-2v3zM1120 70v-2q0 2 -2 2v0v0v2l37 37l2 -3zM1081 109l2 -3l-6 -4h-2zM1092 156h2l-33 -33l-2 2zM1044 182v-2l-16 -14h-2l16 16h2zM1004 256l2 -2 l-27 -25h-2zM969 258l18 18h2l-18 -20l-2 2v0zM1036 213h2l-26 -27l-2 2zM930 291l-2 2l26 26l2 -2zM940 340l-8 -8l-2 2l8 6h2zM846 399l10 9h2l-10 -11zM831 418l-2 2l27 26l2 -2zM881 354l-2 2l14 15h2l10 12l2 -2l-12 -10v-2v2v-2zM750 524l-2 2l26 27l2 -2zM819 481 l-20 -20l-2 2l22 20v-2zM782 481l-2 2l27 27l2 -2zM743 559l15 14l2 -2l-15 -14h-2v2zM707 483v2v-2zM631 408h2l-37 -37l-2 -2v2v-2l-37 -37l-2 2l37 37h2zM670 481l-45 -45l10 15l33 32h2v-2zM518 258l66 66l-11 -15l-53 -53zM442 182h2v-2l-75 -74v3zM369 70v-2l-2 -2 q-5 0 -5 -3l5 7l2 2l37 37l2 -3l-37 -36l-2 -2v2zM258 106l-10 -10l-2 2l10 11zM293 109l26 26h5l-29 -29h-2v3zM264 152l-31 -31q-2 0 -2 2l31 29h2zM293 70v-2l-2 -2h-2l4 4v2l37 37l2 -3l-37 -36l-2 -2v2zM522 821l-2 2l27 25zM518 860l12 10v-2l-10 -12l-2 2v2zM555 784 l23 23l2 -2l-23 -23zM498 911l-25 -26l-2 2zM444 932l-4 -4l-2 2l4 4zM442 971l2 2l5 2l-5 -4v-2v2v-2l-20 -21l-2 2zM391 991l-2 2l17 15h2zM375 1012l-2 2l26 26v-2zM369 1079l-27 -24l-2 2l27 24zM352 1102l-20 -21l-2 2l20 21zM293 1159l8 8l2 -2l-8 -8h-2v2zM244 1182 v2l24 24h2zM293 1120v-2l-2 2h2v2l24 23l2 -2l-24 -23l-2 -2v2zM1194 1159l66 66v-4l-66 -64v2zM1255 1255l2 2zM1192 1120l2 2l20 21l-10 -15l-8 -8l-2 -2v2v-2l-37 -37l-2 2zM1042 934l2 -2v0l-73 -76l-2 2v2zM1008 932h-2l6 8l30 31l2 2l37 35h2l-36 -37l-3 -2v2v-2z M930 784l28 27l-10 -12l-16 -17z" />
<glyph unicode="Y" horiz-adv-x="1290" d="M498 709l2 -2l-21 -19zM463 711l24 24l2 -2l-24 -24zM387 860l4 4l2 -2l-6 -6v2h-2zM457 778v-2l-25 -24l-2 2zM440 801v-2l-16 -17v2zM336 881l-2 2l24 24l2 -2zM387 819l-4 -4v2l2 2l2 2l21 23l2 -2l-23 -23v0zM256 987l-2 2l18 19h2zM240 1010l-2 2l24 24l2 -2z M311 934v-2v0l-8 -8l-2 2zM287 946l22 25h2h2l-2 -2v2v-2l-24 -25v2zM231 1077l-24 -24h-2l26 26v-2zM215 1098l-16 -17v2l16 17v-2zM160 1159h2l4 6l2 -2l-6 -6zM111 1180q0 2 -2 2l26 26v-2zM162 1120v-2l-4 -2v2l2 2l2 2l20 21l2 -2l-20 -21l-2 -2v2zM723 109l2 -3 l-37 -36l-2 -2v2v-2l-2 -2h-4l4 4l2 2zM686 109l74 73v-4l-72 -72h-2v3zM612 72l37 37v-3l-37 -36v-2v2v-2l-4 -2h-2l4 4zM561 96l12 13l2 -3l-14 -12v2zM610 109h2l25 26h4l-29 -29zM547 115l-2 2l33 35l2 -2zM537 182v-2l-7 -6v4zM1137 1159l55 55q0 -2 -2 -4l-53 -53v2z M1174 1233l18 20l2 -2l-18 -18h-2zM1100 1081l-2 2l24 25l-8 -12zM1061 1081l-10 -10l10 12v0l2 -2h-2zM987 932l-76 -76v2v2l74 74l2 -2v0zM987 969l-37 -37l-2 2l2 2l35 35l2 2l37 35l-35 -37l-2 -2v2v-2zM872 784l29 27l-8 -12l-19 -17zM801 707l-17 -15v2l15 15z M836 780l-7 -6l7 8h2z" />
<glyph unicode="Z" horiz-adv-x="1290" d="M1143 109l20 20q-4 -4 -4 -6l-16 -17l-2 3h2zM1104 109l2 -3l-33 -32h-4zM1067 106v3l49 49q1 1 3 2t3 2zM1030 106l-33 -32h-2l33 35zM993 106h-2v3l41 41h4zM954 106l-32 -32h-2l34 35v-3zM918 106l-3 3h3l40 41h3zM881 106l-33 -32h-4l35 35zM842 106v3l41 41h2z M805 106l-33 -32h-2l33 35zM768 106h-2v3l41 41h4zM729 106l-31 -32h-4l35 35v-3zM692 106l-2 3h2l41 41h2zM655 106l-32 -32h-5l35 35zM616 106v3l41 41h2zM580 106l-33 -32h-2l33 35zM543 106h-2v3l41 41h4zM504 106l-31 -32h-4l35 35v-3zM467 106l-2 3h2l41 41h2z M430 106l-33 -32h-4l35 35zM393 106h-2v3l41 41h4zM354 106l-32 -32h-3l33 35zM317 106l-2 3h2l39 41h4zM281 106l-33 -32h-4l35 35zM242 106v3l41 41h2zM178 84l25 25l2 -3l-25 -24q-2 0 -2 2zM209 150h2l-43 -44h-2v3zM152 170l2 -2l-31 -31v2zM133 184l-4 -2l2 4 q0 -2 2 -2zM1143 1159l22 25q0 -4 -2 -4l-20 -23l-2 2h2zM1106 1157l-14 -12l12 14zM991 973l37 35h2l-2 -2l-35 -35l-2 -2v2v-2l-37 -37v2l35 37zM991 1010l76 73v-2l-74 -73h-2v2zM879 858l2 -2l-37 -37h-2v0l-37 -37l-2 2l37 35l2 2zM842 780l-74 -73l-2 2v0l76 75v-2v-2 zM616 557v2l74 74h2v-2zM578 483l36 37l2 2l37 37l2 -2l-37 -37l-2 -2v2v-2l-36 -37zM692 1122l37 37v-2l-37 -37v-2v2v-2l-8 -8h-4l10 10zM768 1161l-2 -2v0zM719 1186h2l-29 -29l-2 2h2zM643 1186h4l-31 -29v2zM567 1186h4l-28 -29h-2v2zM616 1118l-8 -8h-4l10 10l2 2 l37 37l2 -2l-37 -37l-2 -2v2v-2zM494 1186h2l-29 -29l-2 2h2zM541 1118l-9 -8h-2l11 10v2l37 37l2 -2l-37 -37l-2 -2v2v-2zM428 1159l2 -2l-37 -37l-2 -2v2v-2l-8 -8h-2l8 10l2 2zM455 1110l10 10l2 2l37 37v-2l-35 -37l-2 -2v2v-2l-8 -8h-4zM352 1159l2 -2l-37 -37v-2v2v-2 l-10 -8h-2l10 10l2 2zM391 1159l27 27h4l-29 -29h-2v2zM242 1122l37 37l2 -2l-37 -37l-2 -2v2v-2l-6 -6h-5l9 8zM315 1159h2l27 27h2l-29 -29zM182 1139l21 20l2 -2l-21 -20q-2 0 -2 2zM242 1159l26 27h2l-28 -29v2zM166 1159l37 37h2l-37 -39h-2v2zM160 1225l-15 -15v4 l13 13z" />
<glyph unicode="&#xab;" horiz-adv-x="1214" d="M582 106l-2 3h2l26 28v-2v-2zM506 106v3l24 26h5zM467 109l2 -3l-8 -8l-2 2zM475 152l-33 -35l-2 2zM432 182l-2 -2l-27 -26v2l27 26h2zM506 70v-2l-4 -2h-2l4 4l2 2l37 37l2 -3l-37 -36l-2 -2v2zM416 207l2 -2l-25 -23zM309 250l8 8l2 -2l-8 -8zM354 258h2l4 6l2 -2 l-6 -6v2h-2zM291 266v2l33 33v-2zM348 211l-2 2l8 6l2 2l23 23h2l-23 -25h-2v0zM281 332l-27 -27h-2l29 29v-2h2h-2zM268 356l-24 -24l-2 2l24 22h2zM170 408l-10 -11v2l8 9h2zM205 408l2 2l4 4v-2l-4 -4h-2zM145 422v2l27 27l2 -2zM207 371v-2l-8 -9l-2 2l8 9h2l22 24l2 -2 l-24 -22v-2v2zM1032 109l39 38v-2l-39 -39l-2 3h2zM1030 70l2 2l33 32q-1 -1 -2 -3t-2 -3l-29 -28v0q-1 -1 -3 -2t-3 -2zM956 72l37 37l2 -3l-37 -36l-2 -2v2v-2l-2 2zM983 135h2l-29 -29v3zM918 109l2 -3l-2 -2h-3zM930 158q0 -2 2 -2l-35 -33v2zM883 182l-2 -2l-21 -20 l-2 2l23 20h2zM872 213l2 -2l-30 -29zM766 256l2 2l2 -2l-4 -2v2zM805 258h2l10 12v-2l-10 -12v2h-2zM748 272v2l30 33l2 -2zM807 219l-2 -2l-2 2h2l2 2l29 29h2l-31 -31v0zM731 332l-20 -21h-2l22 23v-2v0zM725 362l-31 -30l-2 2l31 28h2zM655 371l31 30l2 -2l-31 -28 l-2 -2v2v-2v-2l-2 2zM616 408h2v-2q-2 0 -2 2zM655 408v2l13 10v-2l-11 -10h-2zM604 432l25 25h2l-25 -27zM543 709l2 -2l-37 -37l-2 -2v2v-2l-37 -35h-2l37 37l2 2zM580 709h2l16 16q-2 -2 -6 -7t-6 -7l-4 -4v2h-2zM393 557l-18 -18v2l18 18v-2zM430 559l76 74v0v-2 l-74 -74h-2v2zM1032 709l37 39v-5l-37 -36v2h-2h2zM1067 784h2v-2zM993 709l2 -2l-37 -37l-2 -2v2v-2l-36 -35h-2l36 37l2 2zM956 631l-73 -74h-2v2l75 74v0v-2zM844 557l-10 -12l-3 2l13 12v-2z" />
<glyph unicode="&#xbb;" horiz-adv-x="1214" d="M541 408l2 2l63 63q2 0 2 -2l-65 -63h-2zM504 334l37 37h2l37 37l-37 -37v-2v2v-2l-37 -37zM393 256l-2 2v0l76 76v-2v0zM354 182l37 37v2l37 37l2 -2l-37 -37h-2v0l-35 -37h-2zM244 106h-2v3l73 73h2v-2zM203 109l2 -3l-31 -32l-2 2zM242 70v-2l-9 -9h-4l11 11l2 2 l37 37l2 -3l-37 -36l-2 -2v2zM166 109h2l27 28h4l-31 -31zM150 162l-5 -2q0 2 2 4q1 0 3 -2zM1028 408h2l-37 -37v-2v2v-2l-37 -37l-2 2l37 37h2zM879 258l2 -2l-37 -37h-2v0l-37 -37l37 37v2zM692 106v3l37 36q2 1 8 7zM653 109l2 -3l-26 -26q0 2 -2 2zM649 139h2l-33 -33 h-2v3zM692 70v-2l-10 -9h-2l10 11l2 2l37 37l2 -3l-37 -36l-2 -2v2zM842 559l2 -2h-2v2zM791 545l14 14v-2l-12 -12h-2zM772 565l33 31h2l-33 -33zM768 631l-31 -31l-2 2l31 31h2v-2zM752 651l-21 -18h-2l21 20zM690 670l2 2l19 18h2l-19 -20l-2 -2v2v-2l-12 -11v2zM641 696 l12 13l2 -2l-12 -13zM692 709v2l2 -2l-2 -2v2zM625 715h-2l32 33l2 -3zM616 780l-10 -10v2l10 12v-2h2zM336 537l-2 2l20 20l2 -2zM317 559l31 31l2 -2l-33 -31l-2 2h2zM281 594l-2 2l32 33l2 -2zM293 645l-12 -12h-2l14 14v-2zM240 670l2 2l12 12l2 -2l-12 -12l-2 -2v2v-2 l-19 -17zM186 688l-2 2l19 19l2 -2zM242 633h2l-2 -2v2zM166 709h2l31 32l2 -2l-33 -32zM164 776l-23 -20v4l21 18z" />
<glyph unicode="&#xd7;" horiz-adv-x="940" d="M760 709l2 -2l-37 -37l-2 -2v2v-2l-37 -35l37 37v2zM647 559h2l74 74h2l-2 -2l-74 -74zM285 532l24 27h2zM274 559l23 25l2 -2l-25 -25l-2 2h2zM262 618l-33 -30h-2l33 33zM244 639l-6 -6h-2l6 6h2zM162 707l-19 -17v2l17 17zM145 727v4l2 2l3 -2zM199 631l-6 -6l-3 2 l9 6v0v-2zM199 670v-2l-27 -25v2l25 25l2 2l6 6v-2l-4 -6l-2 -2v2zM725 182l-2 -2l-37 -37q0 2 -2 2l39 37h2zM760 182l26 27v-4l-24 -23h-2zM657 229h2l-10 -10v0v0l-26 -26v2l24 24l2 2zM649 182v-2l-8 -6v2l6 6h2zM723 217l-37 -35l33 35h4zM584 231l26 27l2 -2l-26 -25 h-2zM573 258l25 25h2l-27 -27v2v0zM561 322v-3l-31 -32l-2 2zM537 332l-2 2l8 6v-2zM461 408h2l-37 -37l-2 -2v2v-2l-37 -37l-2 2l37 37h2zM498 332l-6 -8l-3 2l9 8v-2h2h-2zM498 369l-25 -27l-2 2l27 27l6 6l2 -2l-6 -4l-2 -2v2v-2zM422 334l2 -2v0l-74 -76l-2 2v0z M309 258l2 -2l-37 -37v0v0l-36 -37h-2l36 37l2 2zM274 182v-2l-38 -39h-5l41 41h2zM199 182v-2l-25 -22h-2l27 24v0zM199 219zM152 246l-7 -6v4l5 4q0 -2 2 -2zM199 219l-37 -37h-2l37 37h2z" />
<glyph unicode="&#x2000;" horiz-adv-x="682" />
<glyph unicode="&#x2001;" horiz-adv-x="1365" />
<glyph unicode="&#x2002;" horiz-adv-x="682" />
<glyph unicode="&#x2003;" horiz-adv-x="1365" />
<glyph unicode="&#x2004;" horiz-adv-x="455" />
<glyph unicode="&#x2005;" horiz-adv-x="341" />
<glyph unicode="&#x2006;" horiz-adv-x="227" />
<glyph unicode="&#x2007;" horiz-adv-x="227" />
<glyph unicode="&#x2008;" horiz-adv-x="170" />
<glyph unicode="&#x2009;" horiz-adv-x="273" />
<glyph unicode="&#x200a;" horiz-adv-x="75" />
<glyph unicode="&#x201c;" horiz-adv-x="880" d="M670 1159v-2v2v0zM709 1231l-37 -35q2 2 2 4l33 33h2v-2zM709 1270l-11 -10l4 8l5 2l2 2l36 37v-2l-36 -37v0v0zM709 821l36 37v-2l-36 -37v0v0l-21 -20q-1 0 -3 -1t-3 -1l25 22zM709 860l55 55v-2l-55 -57v2h-2zM633 821l37 37l2 -2l-37 -37h-2v0l-23 -24q-2 0 -4 2 l25 22zM561 821l-2 2l35 35l2 -2zM633 858v2l6 6h4l-10 -10v2zM557 858v2l23 21q0 -2 2 -2l-23 -23zM537 911l-15 -16l-2 2zM522 932h-2v2q0 -2 2 -2zM334 1309l16 18q2 0 2 -2l-18 -18v2h-2h2zM332 1270l2 2l26 26q-2 -2 -2 -4l-24 -24v0v0l-37 -37h-2zM268 1167l-4 -6v4 l8 9q-1 -1 -2 -3.5t-2 -3.5zM334 860l18 19v-5l-18 -18v2h-2zM258 860l10 8q2 2 4 2l-14 -14v2v2zM258 819l-29 -28h-2l29 28l2 2l37 37l2 -2l-37 -37h-2v0zM145 856l-10 -10q0 2 -2 2l12 10v-2zM182 858v2l13 12q1 0 2 -1t2 -1l-15 -14zM123 870q0 2 -2 2l24 25q2 0 2 -2z M182 819l-10 -10h-2l10 10l2 2l37 37l2 -2l-37 -37h-2z" />
<glyph unicode="&#x201d;" horiz-adv-x="880" d="M739 1008l-37 -37q1 2 4.5 6t4.5 6l26 25h2zM774 1081l-12 -14q0 1 1 3t1 3l10 10h2zM700 932l-73 -76l-2 2v2l75 74v-2zM551 856v2h-2l2 2l8 8h2zM551 819l-10 -10q0 2 -2 2l10 8l2 2l37 37v-2l-37 -37v0zM569 1141l19 18v-2l-17 -18zM625 1159l6 6v-4l-4 -4h-2v2z M553 1159v2l35 35h2zM616 1110h-2l9 8l-2 -4zM547 1229l-8 -10v4l6 6h2zM182 1124l-2 2l31 33l2 -2zM174 1159h2l27 27h2l-29 -29zM133 1190v2l23 22v-2zM326 1010l32 32q0 -2 -2 -4l-30 -30h-2zM365 1085l8 9q-2 -2 -2 -4l-9 -9v2q1 2 3 2zM324 971l2 2l8 8q0 -1 -1 -3 t-1 -3l-4 -4l-2 -2v2v-2l-37 -37l-2 2zM250 858v2l26 27q-2 -3 -6 -8.5t-6 -8.5l-12 -14zM176 856v2h-2l2 2l8 8l4 2zM176 819l-24 -24h-2l24 24l2 2l35 37l2 -2l-37 -37v0z" />
<glyph unicode="&#x202f;" horiz-adv-x="273" />
<glyph unicode="&#x205f;" horiz-adv-x="341" />
<glyph unicode="&#x25fc;" horiz-adv-x="1024" d="M0 0z" />
</font>
</defs>
</svg>
